<svg xmlns="http://www.w3.org/2000/svg" width="1440" viewBox="0 0 1440 810" height="810" version="1.0"><defs><clipPath id="a"><path d="M 1 0 L 1439 0 L 1439 808.5 L 1 808.5 Z M 1 0"/></clipPath><clipPath id="b"><path d="M 1 47 L 1439 47 L 1439 808.5 L 1 808.5 Z M 1 47"/></clipPath><clipPath id="c"><path d="M 76 461 L 1439 461 L 1439 808.5 L 76 808.5 Z M 76 461"/></clipPath><clipPath id="d"><path d="M 55.5 412.210938 L 445.5 412.210938 L 445.5 809.710938 L 55.5 809.710938 Z M 55.5 412.210938"/></clipPath><clipPath id="e"><path d="M 55.5 421 L 265 421 L 265 809.710938 L 55.5 809.710938 Z M 55.5 421"/></clipPath><clipPath id="f"><path d="M 445.335938 466 L 596.085938 466 L 596.085938 500 L 445.335938 500 Z M 445.335938 466"/></clipPath><clipPath id="g"><path d="M 468 404.101562 L 479 404.101562 L 479 493 L 468 493 Z M 468 404.101562"/></clipPath><clipPath id="h"><path d="M 470 404.101562 L 481 404.101562 L 481 492 L 470 492 Z M 470 404.101562"/></clipPath><clipPath id="i"><path d="M 472 404.101562 L 482 404.101562 L 482 492 L 472 492 Z M 472 404.101562"/></clipPath><clipPath id="j"><path d="M 475 404.101562 L 484 404.101562 L 484 492 L 475 492 Z M 475 404.101562"/></clipPath><clipPath id="k"><path d="M 476 404.101562 L 485 404.101562 L 485 492 L 476 492 Z M 476 404.101562"/></clipPath><clipPath id="l"><path d="M 458 404.101562 L 475 404.101562 L 475 450 L 458 450 Z M 458 404.101562"/></clipPath><clipPath id="m"><path d="M 456 404.101562 L 476 404.101562 L 476 451 L 456 451 Z M 456 404.101562"/></clipPath><clipPath id="n"><path d="M 454 404.101562 L 464 404.101562 L 464 441 L 454 441 Z M 454 404.101562"/></clipPath><clipPath id="o"><path d="M 514 404.101562 L 523 404.101562 L 523 471 L 514 471 Z M 514 404.101562"/></clipPath><clipPath id="p"><path d="M 516 404.101562 L 524 404.101562 L 524 471 L 516 471 Z M 516 404.101562"/></clipPath><clipPath id="q"><path d="M 517 404.101562 L 525 404.101562 L 525 471 L 517 471 Z M 517 404.101562"/></clipPath><clipPath id="r"><path d="M 519 404.101562 L 527 404.101562 L 527 471 L 519 471 Z M 519 404.101562"/></clipPath><clipPath id="s"><path d="M 521 404.101562 L 528 404.101562 L 528 471 L 521 471 Z M 521 404.101562"/></clipPath><clipPath id="t"><path d="M 506 404.101562 L 520 404.101562 L 520 439 L 506 439 Z M 506 404.101562"/></clipPath><clipPath id="u"><path d="M 505 404.101562 L 521 404.101562 L 521 441 L 505 441 Z M 505 404.101562"/></clipPath><clipPath id="v"><path d="M 503 404.101562 L 512 404.101562 L 512 432 L 503 432 Z M 503 404.101562"/></clipPath></defs><path fill="#FFF" d="M-144 -81H1584V891H-144z"/><path fill="#FFF" d="M-144 -81H1584V891H-144z"/><g clip-path="url(#a)"><path fill="#FFFAC4" d="M 1.730469 0 L 1438.269531 0 L 1438.269531 808.355469 L 1.730469 808.355469 Z M 1.730469 0"/></g><path fill="#FFFAC4" d="M 143.5625 423.902344 C 145.320312 424.125 147.0625 424.335938 148.8125 424.558594 C 180.707031 401.726562 213.710938 380.4375 250.296875 366.988281 C 322.730469 340.363281 386.277344 380.914062 454.351562 407.324219 C 463.414062 410.835938 472.402344 414.535156 481.367188 418.300781 C 495.859375 414.804688 510.457031 410.78125 525.199219 406.117188 C 554.449219 396.863281 584.734375 388.464844 615.003906 391.96875 C 647.683594 395.753906 677.578125 413.054688 708.816406 424.25 C 767.191406 445.164062 831.835938 444.359375 889.765625 421.996094 C 946.164062 400.226562 993.523438 401.480469 1047.054688 407.910156 C 1090.148438 386.425781 1132.597656 363.585938 1179.023438 349.476562 C 1270.203125 321.761719 1359.160156 352.652344 1438.265625 400.449219 L 1438.265625 0 L 1.730469 0 L 1.730469 436.238281 C 42.40625 411.164062 89.773438 417.085938 143.5625 423.902344 Z M 458.550781 47.585938 C 525.753906 47.585938 580.234375 102.085938 580.234375 169.316406 C 580.234375 236.546875 525.753906 291.046875 458.550781 291.046875 C 391.347656 291.046875 336.867188 236.546875 336.867188 169.316406 C 336.867188 102.085938 391.347656 47.585938 458.550781 47.585938 Z M 458.550781 47.585938"/><g clip-path="url(#b)"><path fill="#FFCE7A" d="M 1294.023438 580.371094 C 1293.613281 583.269531 1291.09375 585.507812 1288.019531 585.507812 L 1274.339844 585.507812 L 1274.339844 608.480469 C 1274.339844 614.667969 1269.210938 619.683594 1262.882812 619.683594 C 1256.554688 619.683594 1251.421875 614.667969 1251.421875 608.480469 L 1251.421875 586.484375 C 1250.761719 586.601562 1250.105469 586.703125 1249.4375 586.820312 C 1128.96875 608.15625 1009.65625 560.28125 888.894531 578.871094 C 834.605469 587.226562 780.730469 601.164062 725.617188 600.792969 C 641.652344 600.226562 555.632812 562.53125 471.859375 580.457031 C 434.636719 588.421875 398.363281 601.773438 361.203125 609.867188 L 361.203125 625.570312 C 361.203125 625.707031 361.183594 625.839844 361.183594 625.972656 C 361.183594 626.109375 361.203125 626.242188 361.203125 626.375 C 361.203125 640.410156 348.855469 651.785156 333.625 651.785156 L 263.789062 651.785156 L 263.789062 659.394531 C 292.214844 660.71875 320.566406 662.6875 348.484375 668.449219 C 380.894531 675.132812 412.429688 686.898438 441.832031 703.28125 C 402.503906 701.65625 363.171875 700.03125 323.839844 698.40625 C 303.808594 697.578125 283.492188 696.789062 263.789062 700.28125 L 263.789062 800.726562 C 263.789062 803.328125 263.5 805.863281 263.050781 808.351562 L 1102.007812 808.351562 C 1104.890625 794.070312 1112.550781 780.921875 1122.863281 772.875 C 1139.136719 760.175781 1160.503906 759.226562 1178.773438 767.007812 C 1182.015625 740.558594 1207.621094 721.8125 1228.535156 730.582031 C 1235.695312 733.582031 1242.523438 739.269531 1250.070312 738.453125 C 1258.859375 737.503906 1265.136719 728.238281 1272.324219 722.050781 C 1283.46875 712.453125 1298.589844 709.996094 1311.4375 715.691406 C 1321 719.929688 1331.679688 728.289062 1340.296875 721.734375 C 1344.644531 718.425781 1346.753906 712.222656 1350.1875 707.605469 C 1366.292969 685.96875 1396.6875 709.257812 1419.707031 700.695312 C 1427.679688 697.722656 1433.507812 694.84375 1438.269531 692.425781 L 1438.269531 575.019531 C 1428.265625 575.019531 1418.269531 575.019531 1408.265625 575.019531 C 1368.042969 575.019531 1331.832031 576.097656 1294.023438 580.371094 Z M 582.0625 709.253906 C 581.410156 710.691406 580.5625 711.9375 579.746094 713.28125 C 579.375 713.890625 579.023438 714.515625 578.65625 715.128906 C 578.472656 715.433594 578.289062 715.746094 578.109375 716.054688 C 578.085938 716.09375 578.058594 716.160156 578.023438 716.226562 C 577.78125 716.945312 577.464844 717.632812 577.058594 718.371094 C 577.03125 718.421875 577.023438 718.433594 577 718.476562 C 576.984375 718.507812 576.976562 718.519531 576.957031 718.554688 C 576.824219 718.828125 576.691406 719.097656 576.5625 719.367188 C 575.992188 720.566406 575.488281 721.796875 575.054688 723.050781 C 575.011719 723.171875 574.96875 723.296875 574.929688 723.417969 C 574.855469 723.679688 574.777344 723.941406 574.707031 724.199219 C 574.515625 724.90625 574.347656 725.613281 574.203125 726.328125 C 574.082031 726.925781 573.980469 727.53125 573.890625 728.132812 C 573.882812 728.195312 573.804688 728.902344 573.804688 728.84375 C 573.78125 729.105469 573.761719 729.367188 573.742188 729.628906 C 573.597656 731.773438 572.457031 733.796875 570.625 734.949219 C 569.992188 735.945312 569.105469 736.777344 568.0625 737.289062 C 566.277344 738.164062 564.34375 737.003906 564.445312 734.96875 C 564.507812 733.71875 564.492188 732.472656 564.375 731.230469 C 564.367188 731.128906 564.351562 731.027344 564.339844 730.945312 C 564.296875 730.667969 564.257812 730.390625 564.203125 730.117188 C 564.101562 729.546875 563.976562 728.980469 563.832031 728.421875 C 563.546875 727.320312 563.183594 726.238281 562.738281 725.191406 C 562.683594 725.070312 562.625 724.945312 562.5625 724.820312 C 562.453125 724.59375 562.335938 724.363281 562.214844 724.136719 C 561.953125 723.636719 561.671875 723.152344 561.367188 722.675781 C 560.742188 721.6875 560.019531 720.761719 559.3125 719.828125 C 559 719.421875 558.679688 719.023438 558.34375 718.640625 C 557.925781 718.164062 557.652344 717.609375 557.261719 717.117188 C 556.699219 716.421875 555.65625 715.722656 554.867188 715.171875 C 554.4375 714.875 553.992188 714.617188 553.558594 714.328125 C 552.984375 713.949219 552.554688 713.445312 552.082031 712.941406 C 551.515625 712.335938 552.046875 711.019531 552.355469 710.441406 C 552.710938 709.78125 553.582031 708.65625 554.464844 708.613281 C 555.433594 708.570312 556.144531 708.523438 557.046875 708.847656 C 557.664062 709.070312 558.285156 709.300781 558.886719 709.558594 C 559.894531 709.996094 561.019531 710.71875 561.832031 711.097656 C 562.550781 711.4375 563.113281 711.644531 563.738281 712.15625 C 564.199219 712.535156 564.636719 712.933594 565.070312 713.347656 C 566.027344 714.273438 566.832031 715.308594 567.554688 716.421875 C 568.34375 717.644531 569 718.941406 569.558594 720.277344 C 569.835938 719.628906 570.085938 718.96875 570.402344 718.332031 C 571.027344 717.066406 571.644531 715.714844 572.464844 714.554688 C 572.542969 714.445312 572.882812 714.066406 573.222656 713.695312 C 573.300781 713.59375 573.445312 713.414062 573.523438 713.304688 C 574.019531 712.617188 574.535156 711.941406 575.0625 711.277344 C 576.511719 709.460938 578.261719 707.644531 580.328125 706.570312 C 582.277344 705.570312 582.664062 707.929688 582.0625 709.253906 Z M 940.722656 684.339844 C 939.882812 685.847656 938.425781 686.964844 937.238281 688.214844 C 937.203125 688.25 937.113281 688.335938 937.011719 688.433594 C 936.898438 688.625 936.4375 689.21875 936.316406 689.386719 C 935.738281 690.203125 934.976562 690.855469 934.273438 691.5625 C 931.921875 693.933594 929.628906 696.394531 927.496094 698.972656 C 925.460938 701.433594 923.675781 703.742188 921.820312 706.75 C 920.886719 708.269531 920.546875 708.863281 919.832031 710.433594 C 919.210938 711.789062 918.722656 713.085938 918.433594 714.117188 C 917.941406 715.878906 916.601562 718.007812 914.617188 718.328125 C 912.792969 718.621094 912.03125 716.703125 912.457031 715.179688 C 912.5 715.03125 912.558594 714.878906 912.601562 714.730469 C 912.253906 712.59375 911.734375 710.492188 910.992188 708.457031 C 910.320312 706.613281 909.601562 704.902344 908.421875 702.921875 C 907.878906 702.007812 907.277344 701.121094 906.617188 700.285156 C 905.945312 699.433594 905.511719 698.472656 904.78125 697.65625 C 903.382812 696.085938 901.519531 695.09375 900.105469 693.582031 C 899.703125 693.152344 900.171875 692.171875 900.433594 691.785156 C 900.78125 691.257812 901.304688 690.792969 901.960938 690.78125 C 904.105469 690.75 906.464844 692.066406 908.246094 693.1875 C 909.304688 693.855469 910.324219 694.394531 911.199219 695.300781 C 911.925781 696.054688 912.609375 696.851562 913.234375 697.691406 C 914.863281 699.882812 916.027344 702.347656 916.890625 704.917969 C 918.90625 701.472656 921.328125 698.25 923.976562 695.328125 C 926.5625 692.480469 929.34375 689.816406 932.328125 687.390625 C 933.09375 686.773438 933.867188 686.042969 934.742188 685.589844 C 935.402344 685.246094 936.027344 685.011719 936.667969 684.617188 C 937.71875 683.976562 939.15625 682.765625 940.425781 682.816406 C 941.128906 682.851562 940.929688 683.972656 940.722656 684.339844 Z M 163.3125 800.730469 C 163.3125 803.335938 163.605469 805.871094 164.050781 808.355469 L 1.730469 808.355469 L 1.730469 702.722656 C 6.699219 702.144531 11.660156 701.457031 16.589844 700.808594 C 38.574219 697.910156 61 695.917969 83.058594 697.226562 C 87.957031 702.492188 95.214844 705.839844 103.332031 705.839844 L 128.964844 705.839844 C 129.164062 705.910156 129.363281 705.964844 129.5625 706.03125 C 140.871094 709.960938 151.949219 715.347656 163.3125 718.921875 Z M 76.628906 630.726562 C 52.632812 624.871094 26.070312 619.371094 1.730469 616.984375 L 1.730469 574.082031 C 24.695312 576.253906 54.511719 580.066406 86.632812 584.554688 C 80.539062 589.042969 76.628906 595.9375 76.628906 603.683594 Z M 129.796875 603.679688 C 129.796875 598.652344 128.148438 593.984375 125.328125 590.097656 C 138.003906 591.949219 150.746094 593.847656 163.3125 595.726562 L 163.3125 652.230469 C 158.675781 651.546875 154.050781 650.800781 149.4375 649.9375 C 145.570312 649.210938 138.738281 647.367188 129.796875 644.890625 Z M 336.867188 169.316406 C 336.867188 102.085938 391.347656 47.585938 458.550781 47.585938 C 525.753906 47.585938 580.234375 102.085938 580.234375 169.316406 C 580.234375 236.546875 525.753906 291.046875 458.550781 291.046875 C 391.347656 291.046875 336.867188 236.546875 336.867188 169.316406 Z M 336.867188 169.316406"/></g><path fill="#F9A36E" d="M 1438.269531 400.449219 L 1438.269531 575.023438 C 1428.265625 575.023438 1418.269531 575.023438 1408.265625 575.023438 C 1368.042969 575.023438 1331.832031 576.101562 1294.023438 580.375 C 1294.058594 580.105469 1294.105469 579.839844 1294.105469 579.554688 L 1294.105469 560.78125 C 1294.105469 557.503906 1291.390625 554.851562 1288.042969 554.851562 C 1284.695312 554.851562 1281.980469 557.503906 1281.980469 560.78125 L 1281.980469 573.207031 L 1274.339844 573.207031 L 1274.339844 537.59375 C 1274.339844 531.40625 1269.210938 526.390625 1262.882812 526.390625 C 1256.554688 526.390625 1251.421875 531.40625 1251.421875 537.59375 L 1251.421875 560.125 L 1241.789062 560.125 L 1241.789062 547.917969 C 1241.789062 544.519531 1238.972656 541.765625 1235.5 541.765625 C 1232.027344 541.765625 1229.210938 544.519531 1229.210938 547.917969 L 1229.210938 566.078125 C 1229.210938 566.109375 1229.21875 566.144531 1229.21875 566.175781 C 1229.21875 566.207031 1229.210938 566.242188 1229.210938 566.273438 C 1229.210938 569.671875 1232.027344 572.425781 1235.5 572.425781 L 1251.425781 572.425781 L 1251.425781 586.484375 C 1250.761719 586.601562 1250.109375 586.703125 1249.441406 586.820312 C 1128.96875 608.15625 1009.660156 560.28125 888.898438 578.871094 C 834.605469 587.226562 780.734375 601.164062 725.621094 600.792969 C 641.652344 600.226562 555.636719 562.53125 471.863281 580.457031 C 434.636719 588.421875 398.367188 601.773438 361.207031 609.867188 L 361.207031 550.546875 C 361.207031 536.511719 348.859375 525.136719 333.625 525.136719 C 318.394531 525.136719 306.042969 536.511719 306.042969 550.546875 L 306.042969 600.964844 L 263.789062 600.964844 L 263.789062 507.890625 C 263.789062 482.328125 241.296875 461.605469 213.550781 461.605469 C 185.808594 461.605469 163.3125 482.328125 163.3125 507.890625 L 163.3125 595.726562 C 150.75 593.84375 138.003906 591.949219 125.332031 590.097656 C 120.566406 583.519531 112.441406 579.183594 103.214844 579.183594 C 96.941406 579.183594 91.183594 581.199219 86.632812 584.550781 C 54.511719 580.066406 24.695312 576.25 1.730469 574.078125 L 1.730469 532.878906 C 6.011719 529.6875 10.296875 526.511719 14.566406 523.359375 C 50.363281 496.957031 86.15625 470.558594 121.953125 444.15625 C 130.851562 437.589844 139.789062 431.015625 148.808594 424.558594 C 180.703125 401.726562 213.710938 380.4375 250.292969 366.988281 C 322.726562 340.363281 386.273438 380.914062 454.347656 407.324219 C 463.410156 410.835938 472.402344 414.535156 481.363281 418.300781 C 523.582031 436.042969 564.785156 456.25 605.917969 476.476562 C 734.335938 539.621094 898.429688 477.898438 1018.0625 421.988281 C 1027.792969 417.441406 1037.441406 412.707031 1047.054688 407.914062 C 1090.144531 386.429688 1132.597656 363.589844 1179.023438 349.480469 C 1270.203125 321.757812 1359.164062 352.652344 1438.269531 400.449219 Z M 129.796875 644.890625 L 129.796875 655.019531 L 163.3125 655.019531 L 163.3125 652.238281 C 158.679688 651.554688 154.054688 650.808594 149.441406 649.941406 C 145.570312 649.214844 138.738281 647.371094 129.796875 644.890625 Z M 163.3125 718.925781 L 163.3125 705.84375 L 128.964844 705.84375 C 129.164062 705.914062 129.363281 705.96875 129.5625 706.035156 C 140.875 709.960938 151.953125 715.347656 163.3125 718.925781 Z M 263.789062 700.289062 C 283.492188 696.792969 303.808594 697.582031 323.839844 698.410156 C 363.171875 700.039062 402.503906 701.660156 441.832031 703.289062 C 412.425781 686.90625 380.890625 675.140625 348.484375 668.453125 C 320.566406 662.695312 292.214844 660.726562 263.789062 659.398438 Z M 83.058594 697.226562 C 79.058594 692.925781 76.628906 687.347656 76.628906 681.238281 L 76.628906 630.730469 C 52.632812 624.871094 26.070312 619.371094 1.730469 616.984375 L 1.730469 702.722656 C 6.699219 702.144531 11.660156 701.457031 16.589844 700.808594 C 38.574219 697.910156 61 695.917969 83.058594 697.226562 Z M 83.058594 697.226562"/><g clip-path="url(#c)"><path fill="#466E43" d="M 1419.707031 700.695312 C 1427.679688 697.726562 1433.507812 694.847656 1438.269531 692.425781 L 1438.269531 808.355469 L 1102.007812 808.355469 C 1104.890625 794.078125 1112.550781 780.929688 1122.863281 772.878906 C 1139.136719 760.183594 1160.503906 759.230469 1178.773438 767.015625 C 1182.015625 740.5625 1207.621094 721.820312 1228.535156 730.585938 C 1235.695312 733.589844 1242.523438 739.277344 1250.070312 738.460938 C 1258.859375 737.511719 1265.136719 728.246094 1272.324219 722.058594 C 1283.46875 712.460938 1298.589844 710 1311.4375 715.695312 C 1321 719.9375 1331.679688 728.292969 1340.296875 721.742188 C 1344.644531 718.433594 1346.753906 712.226562 1350.1875 707.613281 C 1366.292969 685.972656 1396.6875 709.265625 1419.707031 700.695312 Z M 263.789062 700.289062 L 263.789062 651.792969 L 333.621094 651.792969 C 348.855469 651.792969 361.203125 640.417969 361.203125 626.382812 C 361.203125 626.246094 361.183594 626.113281 361.179688 625.980469 C 361.183594 625.84375 361.203125 625.710938 361.203125 625.578125 L 361.203125 550.554688 C 361.203125 536.519531 348.855469 525.144531 333.621094 525.144531 C 318.386719 525.144531 306.039062 536.519531 306.039062 550.554688 L 306.039062 600.972656 L 263.789062 600.972656 L 263.789062 507.890625 C 263.789062 482.328125 241.296875 461.605469 213.550781 461.605469 C 185.808594 461.605469 163.3125 482.328125 163.3125 507.890625 L 163.3125 655.015625 L 129.796875 655.015625 L 129.796875 603.675781 C 129.796875 598.648438 128.148438 593.980469 125.328125 590.09375 C 120.5625 583.515625 112.4375 579.183594 103.210938 579.183594 C 96.9375 579.183594 91.179688 581.199219 86.632812 584.546875 C 80.539062 589.039062 76.628906 595.929688 76.628906 603.675781 L 76.628906 681.234375 C 76.628906 687.34375 79.058594 692.921875 83.058594 697.222656 C 87.957031 702.488281 95.214844 705.835938 103.332031 705.835938 L 163.3125 705.835938 L 163.3125 800.722656 C 163.3125 803.328125 163.605469 805.863281 164.050781 808.347656 L 263.050781 808.347656 C 263.5 805.863281 263.789062 803.328125 263.789062 800.722656 Z M 1262.882812 619.683594 C 1269.207031 619.683594 1274.339844 614.667969 1274.339844 608.480469 L 1274.339844 585.511719 L 1288.019531 585.511719 C 1291.09375 585.511719 1293.613281 583.273438 1294.023438 580.375 C 1294.058594 580.105469 1294.105469 579.839844 1294.105469 579.554688 L 1294.105469 560.78125 C 1294.105469 557.503906 1291.390625 554.851562 1288.042969 554.851562 C 1284.695312 554.851562 1281.980469 557.503906 1281.980469 560.78125 L 1281.980469 573.207031 L 1274.339844 573.207031 L 1274.339844 537.59375 C 1274.339844 531.40625 1269.210938 526.390625 1262.882812 526.390625 C 1256.554688 526.390625 1251.421875 531.40625 1251.421875 537.59375 L 1251.421875 560.125 L 1241.789062 560.125 L 1241.789062 547.917969 C 1241.789062 544.519531 1238.972656 541.765625 1235.5 541.765625 C 1232.027344 541.765625 1229.210938 544.519531 1229.210938 547.917969 L 1229.210938 566.078125 C 1229.210938 566.109375 1229.21875 566.144531 1229.21875 566.175781 C 1229.21875 566.207031 1229.210938 566.242188 1229.210938 566.273438 C 1229.210938 569.671875 1232.027344 572.425781 1235.5 572.425781 L 1251.425781 572.425781 L 1251.425781 608.480469 C 1251.421875 614.667969 1256.554688 619.683594 1262.882812 619.683594 Z M 1262.882812 619.683594"/></g><path fill="#C18056" d="M 14.566406 523.359375 C 10.292969 526.511719 6.011719 529.6875 1.730469 532.878906 L 1.730469 436.238281 C 42.40625 411.164062 89.773438 417.089844 143.5625 423.902344 C 145.320312 424.125 147.0625 424.335938 148.8125 424.558594 C 139.792969 431.015625 130.851562 437.59375 121.957031 444.15625 C 86.15625 470.558594 50.363281 496.957031 14.566406 523.359375 Z M 1018.0625 421.984375 C 1027.796875 417.4375 1037.441406 412.707031 1047.058594 407.910156 C 993.527344 401.480469 946.167969 400.226562 889.765625 421.996094 C 831.835938 444.363281 767.195312 445.164062 708.820312 424.25 C 677.582031 413.054688 647.683594 395.753906 615.007812 391.96875 C 584.734375 388.460938 554.449219 396.863281 525.203125 406.117188 C 510.457031 410.78125 495.863281 414.804688 481.367188 418.300781 C 523.589844 436.042969 564.789062 456.25 605.925781 476.476562 C 734.34375 539.621094 898.433594 477.890625 1018.0625 421.984375 Z M 580.332031 706.578125 C 578.261719 707.652344 576.515625 709.472656 575.066406 711.289062 C 574.535156 711.949219 574.023438 712.625 573.527344 713.3125 C 573.449219 713.421875 573.304688 713.605469 573.226562 713.703125 C 572.882812 714.074219 572.546875 714.453125 572.46875 714.5625 C 571.648438 715.722656 571.027344 717.074219 570.40625 718.339844 C 570.089844 718.980469 569.839844 719.636719 569.5625 720.285156 C 569.003906 718.949219 568.347656 717.652344 567.558594 716.433594 C 566.835938 715.316406 566.027344 714.28125 565.074219 713.355469 C 564.644531 712.941406 564.203125 712.539062 563.738281 712.164062 C 563.117188 711.652344 562.554688 711.449219 561.835938 711.105469 C 561.023438 710.722656 559.902344 710.003906 558.890625 709.570312 C 558.285156 709.308594 557.671875 709.074219 557.050781 708.855469 C 556.144531 708.535156 555.4375 708.578125 554.46875 708.625 C 553.589844 708.664062 552.710938 709.789062 552.359375 710.449219 C 552.050781 711.027344 551.515625 712.34375 552.085938 712.953125 C 552.554688 713.453125 552.984375 713.953125 553.558594 714.335938 C 553.992188 714.625 554.441406 714.882812 554.871094 715.183594 C 555.65625 715.734375 556.703125 716.433594 557.265625 717.128906 C 557.660156 717.617188 557.925781 718.171875 558.347656 718.652344 C 558.683594 719.035156 559.007812 719.433594 559.316406 719.839844 C 560.023438 720.773438 560.746094 721.695312 561.371094 722.6875 C 561.671875 723.160156 561.957031 723.644531 562.21875 724.144531 C 562.339844 724.371094 562.453125 724.597656 562.566406 724.832031 C 562.628906 724.953125 562.683594 725.074219 562.742188 725.203125 C 563.183594 726.25 563.550781 727.328125 563.835938 728.429688 C 563.976562 728.988281 564.105469 729.554688 564.207031 730.125 C 564.257812 730.402344 564.300781 730.675781 564.34375 730.953125 C 564.355469 731.035156 564.367188 731.136719 564.378906 731.238281 C 564.496094 732.484375 564.507812 733.730469 564.449219 734.976562 C 564.347656 737.015625 566.277344 738.171875 568.066406 737.296875 C 569.105469 736.789062 569.992188 735.953125 570.628906 734.957031 C 572.457031 733.804688 573.601562 731.78125 573.742188 729.640625 C 573.761719 729.378906 573.785156 729.113281 573.804688 728.851562 C 573.804688 728.910156 573.882812 728.203125 573.894531 728.140625 C 573.980469 727.539062 574.082031 726.933594 574.207031 726.335938 C 574.347656 725.621094 574.519531 724.910156 574.707031 724.210938 C 574.78125 723.949219 574.859375 723.6875 574.933594 723.429688 C 574.972656 723.304688 575.015625 723.179688 575.054688 723.058594 C 575.488281 721.804688 575.996094 720.574219 576.566406 719.375 C 576.695312 719.101562 576.828125 718.835938 576.960938 718.566406 C 576.980469 718.523438 576.984375 718.515625 577 718.484375 C 577.023438 718.445312 577.03125 718.429688 577.0625 718.378906 C 577.46875 717.640625 577.785156 716.953125 578.027344 716.238281 C 578.058594 716.167969 578.089844 716.105469 578.113281 716.0625 C 578.292969 715.753906 578.476562 715.445312 578.660156 715.136719 C 579.027344 714.523438 579.378906 713.898438 579.75 713.289062 C 580.5625 711.945312 581.414062 710.699219 582.066406 709.261719 C 582.664062 707.929688 582.277344 705.570312 580.332031 706.578125 Z M 940.425781 682.824219 C 939.15625 682.777344 937.71875 683.984375 936.667969 684.625 C 936.027344 685.019531 935.402344 685.253906 934.742188 685.597656 C 933.867188 686.050781 933.089844 686.78125 932.328125 687.398438 C 929.34375 689.824219 926.5625 692.492188 923.976562 695.339844 C 921.328125 698.257812 918.90625 701.476562 916.890625 704.925781 C 916.027344 702.355469 914.863281 699.890625 913.234375 697.699219 C 912.609375 696.859375 911.929688 696.0625 911.199219 695.308594 C 910.324219 694.402344 909.308594 693.867188 908.246094 693.199219 C 906.460938 692.078125 904.105469 690.761719 901.960938 690.792969 C 901.304688 690.800781 900.78125 691.265625 900.433594 691.792969 C 900.175781 692.179688 899.703125 693.15625 900.105469 693.589844 C 901.519531 695.101562 903.386719 696.09375 904.78125 697.664062 C 905.511719 698.484375 905.945312 699.441406 906.617188 700.292969 C 907.277344 701.128906 907.875 702.011719 908.421875 702.929688 C 909.601562 704.914062 910.320312 706.621094 910.992188 708.464844 C 911.734375 710.5 912.257812 712.605469 912.601562 714.738281 C 912.558594 714.890625 912.5 715.039062 912.457031 715.1875 C 912.03125 716.710938 912.792969 718.632812 914.617188 718.335938 C 916.601562 718.011719 917.941406 715.890625 918.433594 714.128906 C 918.726562 713.09375 919.210938 711.792969 919.832031 710.441406 C 920.550781 708.875 920.886719 708.277344 921.820312 706.757812 C 923.675781 703.75 925.460938 701.445312 927.496094 698.980469 C 929.625 696.40625 931.921875 693.945312 934.273438 691.570312 C 934.976562 690.863281 935.738281 690.210938 936.316406 689.394531 C 936.4375 689.226562 936.898438 688.632812 937.011719 688.445312 C 937.113281 688.347656 937.203125 688.261719 937.238281 688.222656 C 938.425781 686.976562 939.882812 685.855469 940.722656 684.347656 C 940.929688 683.972656 941.128906 682.851562 940.425781 682.824219 Z M 940.425781 682.824219"/><g clip-path="url(#d)"><path fill="#2F5A21" d="M 420.851562 727.683594 L 421.835938 727.683594 L 422.023438 724.007812 L 444.566406 726.34375 L 445.539062 716.945312 L 422.488281 714.558594 L 425.308594 657.894531 C 425.335938 657.609375 425.351562 657.320312 425.371094 657.039062 L 441.308594 654.480469 L 441.054688 652.921875 L 425.488281 655.425781 C 425.527344 654.640625 425.550781 653.851562 425.550781 653.050781 C 425.550781 642.824219 422.464844 633.589844 417.507812 627.015625 L 428.40625 617.789062 L 424.347656 613.367188 L 413.449219 622.59375 C 409.375 618.996094 404.527344 616.898438 399.332031 616.898438 C 395.199219 616.898438 391.621094 617.957031 388.542969 619.722656 L 381.34375 604.804688 L 376.132812 607.738281 L 383.695312 623.398438 L 383.867188 623.308594 C 378.542969 628.609375 375.449219 636.488281 374.367188 644.21875 C 371.957031 661.453125 382.59375 678.207031 378.804688 694.847656 C 377.421875 700.949219 374.976562 704.53125 369.101562 706.261719 C 368.664062 706.382812 366.675781 706.382812 364.285156 706.382812 C 360.03125 706.378906 354.53125 706.378906 354.46875 707.105469 L 355.140625 700.117188 L 355.140625 700.109375 L 365.542969 591.503906 L 365.96875 592.867188 C 376.101562 589.753906 387.742188 586.515625 389.667969 586.457031 C 389.648438 586.457031 389.359375 586.464844 388.941406 586.324219 L 390.980469 580.363281 C 390 580.023438 388.363281 579.472656 366.046875 586.253906 L 367.859375 567.375 C 367.914062 566.8125 367.949219 566.242188 368.003906 565.675781 L 379.59375 564.15625 L 379.71875 561.617188 L 368.222656 563.117188 C 368.4375 560.144531 368.585938 557.136719 368.644531 554.105469 L 391.976562 547.511719 L 389.402344 538.421875 L 368.578125 544.308594 C 368.558594 543.902344 368.535156 543.507812 368.515625 543.109375 C 368.46875 541.871094 368.398438 540.648438 368.320312 539.429688 L 381.515625 534.84375 L 379.613281 530.351562 L 367.925781 534.410156 C 367.839844 533.476562 367.757812 532.546875 367.65625 531.621094 C 367.628906 531.375 367.59375 531.132812 367.5625 530.886719 C 367.378906 529.277344 367.175781 527.675781 366.945312 526.082031 C 366.859375 525.488281 366.769531 524.902344 366.675781 524.3125 C 366.472656 522.996094 366.25 521.6875 366.015625 520.382812 C 365.917969 519.835938 365.824219 519.292969 365.726562 518.753906 C 365.394531 517.019531 365.042969 515.296875 364.660156 513.597656 C 364.558594 513.128906 364.441406 512.667969 364.335938 512.207031 C 364.035156 510.929688 363.726562 509.660156 363.40625 508.40625 C 363.234375 507.75 363.054688 507.089844 362.875 506.4375 C 362.574219 505.324219 362.253906 504.222656 361.925781 503.128906 C 361.75 502.515625 361.570312 501.898438 361.386719 501.289062 C 360.90625 499.753906 360.40625 498.238281 359.890625 496.734375 C 359.65625 496.054688 359.410156 495.398438 359.164062 494.726562 C 358.832031 493.804688 358.496094 492.894531 358.148438 491.992188 C 357.859375 491.226562 357.5625 490.472656 357.253906 489.714844 C 356.925781 488.910156 356.589844 488.105469 356.25 487.304688 C 355.835938 486.332031 355.417969 485.371094 354.988281 484.417969 C 354.5 483.34375 354.007812 482.273438 353.503906 481.222656 C 353.351562 480.902344 353.195312 480.574219 353.042969 480.253906 L 372.796875 462.875 L 366.539062 455.78125 L 348.429688 471.722656 C 346.953125 469.203125 345.394531 466.773438 343.78125 464.421875 C 343.589844 464.140625 343.398438 463.863281 343.203125 463.59375 C 342.550781 462.652344 341.882812 461.722656 341.207031 460.8125 L 341.113281 460.695312 C 338.847656 457.65625 336.464844 454.785156 333.984375 452.085938 L 333.816406 451.914062 C 333.203125 451.242188 332.59375 450.566406 331.964844 449.925781 L 341.132812 442.742188 L 340.160156 441.507812 L 330.832031 448.8125 C 325.472656 443.488281 319.683594 438.933594 313.539062 435.304688 L 320.289062 421.324219 L 315.085938 418.390625 L 308.28125 432.476562 C 299.351562 428.089844 289.78125 425.59375 279.8125 425.285156 L 279.8125 412.554688 L 278.238281 412.554688 L 278.238281 425.230469 C 278.082031 425.230469 277.929688 425.21875 277.773438 425.21875 C 269.160156 425.21875 260.839844 426.90625 252.945312 429.992188 L 248.914062 421.707031 L 246.082031 423.085938 L 250.023438 431.191406 C 245.378906 433.238281 240.910156 435.796875 236.621094 438.804688 L 236.628906 438.800781 L 236.503906 438.890625 C 233.816406 440.78125 231.203125 442.851562 228.679688 445.09375 L 228.5 445.25 C 225.9375 447.527344 223.476562 449.976562 221.097656 452.589844 L 221.054688 452.640625 C 220.292969 453.488281 219.535156 454.347656 218.785156 455.226562 L 218.507812 455.558594 C 217.722656 456.488281 216.941406 457.425781 216.183594 458.390625 L 198.949219 443.222656 L 192.691406 450.308594 L 210.617188 466.085938 C 209.335938 468.023438 208.113281 470.027344 206.917969 472.0625 L 195.347656 463.667969 L 194.421875 464.941406 L 206.128906 473.441406 C 205.980469 473.691406 205.839844 473.949219 205.699219 474.210938 C 205.230469 475.046875 204.769531 475.886719 204.320312 476.742188 C 204.023438 477.289062 203.746094 477.84375 203.464844 478.402344 C 202.78125 479.738281 202.113281 481.09375 201.46875 482.46875 C 201.136719 483.164062 200.804688 483.871094 200.484375 484.585938 C 200.132812 485.355469 199.800781 486.128906 199.460938 486.917969 C 199.128906 487.691406 198.800781 488.472656 198.480469 489.261719 C 198.1875 489.980469 197.890625 490.699219 197.605469 491.425781 C 197.070312 492.800781 196.554688 494.199219 196.054688 495.605469 C 195.820312 496.273438 195.59375 496.941406 195.371094 497.613281 C 195.03125 498.597656 194.714844 499.582031 194.398438 500.578125 C 194.191406 501.242188 193.980469 501.898438 193.777344 502.570312 L 193.652344 502.964844 C 190.234375 501.179688 184.3125 498.410156 173.863281 493.929688 L 171.375 499.714844 C 179.390625 503.152344 188.234375 507.164062 191.960938 509.152344 C 191.683594 510.234375 191.417969 511.316406 191.164062 512.410156 C 191.023438 513.015625 190.890625 513.617188 190.753906 514.226562 C 190.453125 515.597656 190.167969 516.976562 189.902344 518.359375 C 189.828125 518.738281 189.75 519.113281 189.675781 519.496094 C 189.355469 521.226562 189.074219 522.972656 188.800781 524.726562 C 188.722656 525.246094 188.648438 525.777344 188.574219 526.304688 C 188.375 527.703125 188.191406 529.117188 188.03125 530.523438 C 187.96875 531.003906 187.910156 531.484375 187.859375 531.964844 C 187.664062 533.789062 187.496094 535.625 187.355469 537.46875 C 187.324219 537.851562 187.304688 538.238281 187.28125 538.617188 C 187.175781 540.15625 187.089844 541.699219 187.023438 543.257812 C 186.996094 543.78125 186.980469 544.308594 186.960938 544.835938 C 186.898438 546.742188 186.855469 548.664062 186.855469 550.589844 C 186.855469 556.285156 187.15625 561.878906 187.691406 567.375 C 188.628906 586.269531 189.472656 605.164062 190.367188 624.0625 C 191.0625 638.800781 191.449219 653.585938 192.15625 668.3125 C 192.550781 676.5 191.996094 678.609375 182.964844 679.03125 C 175.683594 679.371094 165.875 677.007812 165.59375 667.984375 C 165.316406 659.097656 166.363281 649.824219 166.992188 640.953125 C 168.054688 625.910156 169.378906 610.878906 170.839844 595.863281 C 171.105469 593.125 171.25 590.347656 171.25 587.511719 C 171.25 569.425781 165.667969 553.148438 156.757812 541.75 L 175.304688 525.433594 L 169.046875 518.339844 L 150.277344 534.859375 C 148.425781 533.230469 146.480469 531.785156 144.453125 530.535156 L 144.441406 530.53125 C 143.75 530.105469 143.050781 529.699219 142.335938 529.320312 L 142.296875 529.292969 C 141.601562 528.933594 140.898438 528.582031 140.191406 528.261719 L 140.082031 528.207031 C 139.398438 527.898438 138.714844 527.621094 138.03125 527.355469 L 137.808594 527.269531 C 137.15625 527.03125 136.496094 526.808594 135.839844 526.605469 L 135.5 526.503906 C 134.878906 526.316406 134.25 526.15625 133.617188 526.011719 C 133.460938 525.972656 133.3125 525.929688 133.160156 525.898438 C 132.5625 525.765625 131.957031 525.660156 131.355469 525.5625 C 131.164062 525.53125 130.980469 525.488281 130.789062 525.460938 L 130.660156 525.445312 C 130.820312 521.445312 130.867188 515.285156 130.707031 505.640625 L 124.402344 505.742188 C 124.519531 512.679688 124.515625 520.242188 124.359375 525.160156 C 117.457031 525.382812 111.558594 526.976562 106.527344 529.621094 L 101.5625 519.429688 L 98.726562 520.804688 L 103.800781 531.21875 C 98.867188 534.386719 94.851562 538.625 91.582031 543.558594 L 72.707031 526.945312 L 66.453125 534.035156 L 86.933594 552.058594 C 84.335938 557.820312 82.445312 564.101562 81.070312 570.484375 L 73.027344 565.40625 L 72.183594 566.734375 L 80.726562 572.128906 C 79.894531 576.273438 79.265625 580.449219 78.804688 584.535156 C 78.398438 588.144531 77.980469 592.105469 77.578125 596.316406 L 58.519531 586.328125 L 55.460938 590.265625 L 75.746094 600.882812 L 77.34375 598.820312 C 76.644531 606.554688 76.035156 615.085938 75.707031 624.039062 L 65.46875 623.410156 L 65.367188 624.980469 L 75.652344 625.613281 C 75.449219 631.765625 75.386719 638.101562 75.527344 644.492188 L 63.183594 645.664062 L 63.476562 648.800781 L 75.613281 647.644531 C 76.421875 672.292969 80.382812 697.464844 91.121094 715.992188 L 90.984375 715.800781 L 81.269531 722.511719 L 82.160156 723.804688 L 91.808594 717.148438 C 97.652344 726.816406 105.417969 734.597656 115.652344 739.382812 C 116.496094 739.777344 117.347656 740.144531 118.207031 740.503906 C 118.515625 740.632812 118.832031 740.742188 119.136719 740.863281 C 119.691406 741.082031 120.246094 741.300781 120.800781 741.503906 C 121.171875 741.632812 121.546875 741.757812 121.914062 741.886719 C 122.425781 742.050781 122.9375 742.230469 123.449219 742.390625 C 123.84375 742.511719 124.238281 742.625 124.632812 742.742188 C 125.128906 742.886719 125.636719 743.035156 126.144531 743.171875 C 126.539062 743.28125 126.945312 743.378906 127.347656 743.480469 C 127.859375 743.609375 128.367188 743.738281 128.886719 743.855469 C 129.28125 743.941406 129.679688 744.027344 130.074219 744.113281 C 130.609375 744.222656 131.144531 744.335938 131.6875 744.433594 C 132.070312 744.507812 132.453125 744.582031 132.839844 744.648438 C 133.40625 744.738281 133.972656 744.839844 134.546875 744.925781 C 134.902344 744.980469 135.257812 745.035156 135.617188 745.078125 C 136.25 745.171875 136.886719 745.25 137.527344 745.324219 C 137.820312 745.359375 138.117188 745.398438 138.414062 745.429688 C 139.195312 745.515625 139.984375 745.589844 140.769531 745.648438 C 140.925781 745.667969 141.078125 745.6875 141.234375 745.699219 C 161.097656 747.269531 182.441406 743.046875 200.804688 740.058594 L 200.804688 740.066406 C 200.964844 740.035156 201.128906 740.003906 201.289062 739.980469 C 202.054688 744.957031 213.652344 809.363281 215.820312 809.363281 L 339.730469 809.363281 L 351.152344 741.375 L 393.300781 743.183594 C 394.378906 743.292969 395.480469 743.363281 396.601562 743.363281 C 402.519531 743.363281 407.945312 741.738281 412.195312 739.042969 L 424.640625 749.144531 L 425.628906 747.925781 L 413.542969 738.109375 C 417.269531 735.378906 419.902344 731.757812 420.851562 727.683594"/></g><path fill="#2F5A21" d="M 361.304688 499.972656 L 368.515625 496.203125 L 367.902344 494.488281 L 360.691406 498.257812 L 361.304688 499.972656"/><path fill="#2F5A21" d="M 424.914062 692.847656 L 436.53125 691.328125 L 436.652344 688.78125 L 425.03125 690.300781 L 424.914062 692.847656"/><path fill="#2F5A21" d="M 425.015625 641.859375 L 432.226562 638.085938 L 431.617188 636.371094 L 424.398438 640.140625 L 425.015625 641.859375"/><path fill="#848182" d="M 253.007812 429.96875 C 253.355469 429.832031 253.703125 429.695312 254.050781 429.566406 C 253.703125 429.695312 253.355469 429.832031 253.007812 429.96875"/><g clip-path="url(#e)"><path fill="#1A3110" d="M 264.8125 809.363281 L 215.820312 809.363281 C 213.652344 809.363281 202.054688 744.957031 201.289062 739.980469 C 201.128906 740.003906 200.964844 740.035156 200.804688 740.066406 L 200.804688 740.058594 C 185.179688 742.597656 167.398438 746.039062 150.203125 746.039062 C 147.191406 746.039062 144.195312 745.925781 141.234375 745.699219 C 141.078125 745.6875 140.925781 745.667969 140.769531 745.648438 C 139.984375 745.589844 139.195312 745.515625 138.414062 745.429688 C 138.117188 745.398438 137.820312 745.359375 137.527344 745.324219 C 136.886719 745.25 136.25 745.171875 135.617188 745.078125 C 135.257812 745.035156 134.902344 744.980469 134.546875 744.925781 C 133.972656 744.839844 133.40625 744.738281 132.839844 744.648438 C 132.453125 744.582031 132.070312 744.507812 131.6875 744.433594 C 131.144531 744.335938 130.609375 744.222656 130.074219 744.113281 C 129.679688 744.027344 129.28125 743.941406 128.886719 743.855469 C 128.367188 743.738281 127.859375 743.609375 127.347656 743.480469 C 126.945312 743.378906 126.539062 743.28125 126.144531 743.171875 C 125.636719 743.035156 125.128906 742.886719 124.632812 742.742188 C 124.238281 742.625 123.84375 742.511719 123.449219 742.390625 C 122.9375 742.230469 122.425781 742.050781 121.914062 741.886719 C 121.546875 741.757812 121.171875 741.632812 120.800781 741.503906 C 120.246094 741.300781 119.691406 741.082031 119.136719 740.863281 C 118.832031 740.742188 118.515625 740.632812 118.207031 740.503906 C 117.347656 740.144531 116.496094 739.777344 115.652344 739.382812 C 105.417969 734.597656 97.652344 726.816406 91.808594 717.148438 L 82.160156 723.804688 L 81.269531 722.511719 L 90.984375 715.800781 L 91.121094 715.992188 C 80.382812 697.464844 76.421875 672.292969 75.613281 647.644531 L 63.476562 648.800781 L 63.183594 645.664062 L 75.527344 644.492188 C 75.480469 642.140625 75.453125 639.804688 75.453125 637.480469 C 75.453125 633.46875 75.523438 629.507812 75.652344 625.613281 L 65.367188 624.980469 L 65.46875 623.410156 L 75.707031 624.039062 C 76.035156 615.085938 76.644531 606.554688 77.34375 598.820312 L 75.746094 600.882812 L 55.460938 590.265625 L 58.519531 586.328125 L 77.578125 596.316406 C 77.980469 592.105469 78.398438 588.144531 78.804688 584.535156 C 79.265625 580.449219 79.894531 576.273438 80.726562 572.128906 L 72.183594 566.734375 L 73.027344 565.40625 L 81.070312 570.484375 C 82.445312 564.101562 84.335938 557.820312 86.933594 552.058594 L 66.453125 534.035156 L 72.707031 526.945312 L 91.582031 543.558594 C 94.851562 538.625 98.867188 534.386719 103.800781 531.21875 L 98.726562 520.804688 L 101.5625 519.429688 L 106.527344 529.621094 C 111.558594 526.976562 117.457031 525.382812 124.359375 525.160156 C 124.445312 522.449219 124.484375 518.941406 124.484375 515.171875 C 124.484375 512.101562 124.457031 508.863281 124.402344 505.742188 L 130.707031 505.640625 C 130.777344 509.703125 130.808594 513.15625 130.808594 516.082031 C 130.808594 520.09375 130.75 523.132812 130.660156 525.445312 L 130.789062 525.460938 C 130.980469 525.488281 131.164062 525.53125 131.355469 525.5625 C 131.957031 525.660156 132.5625 525.765625 133.160156 525.898438 C 133.3125 525.929688 133.460938 525.972656 133.617188 526.011719 C 134.25 526.15625 134.878906 526.316406 135.5 526.503906 L 135.839844 526.605469 C 136.496094 526.808594 137.15625 527.03125 137.808594 527.269531 L 138.03125 527.355469 C 138.714844 527.621094 139.398438 527.898438 140.082031 528.207031 L 140.191406 528.261719 C 140.898438 528.582031 141.601562 528.933594 142.296875 529.292969 L 142.335938 529.320312 C 143.050781 529.699219 143.75 530.105469 144.441406 530.53125 L 144.453125 530.535156 C 146.480469 531.785156 148.425781 533.230469 150.277344 534.859375 L 169.046875 518.339844 L 175.304688 525.433594 L 156.757812 541.75 C 165.667969 553.148438 171.25 569.425781 171.25 587.511719 C 171.25 590.347656 171.105469 593.125 170.839844 595.863281 C 169.378906 610.878906 168.054688 625.910156 166.992188 640.953125 C 166.429688 648.820312 165.542969 657 165.550781 664.953125 C 165.550781 665.96875 165.5625 666.984375 165.59375 667.984375 C 165.859375 676.460938 174.527344 679.0625 181.617188 679.0625 C 182.070312 679.0625 182.519531 679.050781 182.964844 679.03125 C 190.777344 678.664062 192.25 677.035156 192.25 671.300781 C 192.25 670.410156 192.210938 669.417969 192.15625 668.3125 C 191.449219 653.585938 191.0625 638.800781 190.367188 624.0625 C 189.472656 605.164062 188.628906 586.269531 187.691406 567.375 C 187.15625 561.878906 186.855469 556.285156 186.855469 550.589844 C 186.855469 548.664062 186.898438 546.742188 186.960938 544.835938 C 186.980469 544.308594 186.996094 543.78125 187.023438 543.257812 C 187.089844 541.699219 187.175781 540.15625 187.28125 538.617188 C 187.304688 538.238281 187.324219 537.851562 187.355469 537.46875 C 187.496094 535.625 187.664062 533.789062 187.859375 531.964844 C 187.910156 531.484375 187.96875 531.003906 188.03125 530.523438 C 188.191406 529.117188 188.375 527.703125 188.574219 526.304688 C 188.648438 525.777344 188.722656 525.246094 188.800781 524.726562 C 189.074219 522.972656 189.355469 521.226562 189.675781 519.496094 C 189.75 519.113281 189.828125 518.738281 189.902344 518.359375 C 190.167969 516.976562 190.453125 515.597656 190.753906 514.226562 C 190.890625 513.617188 191.023438 513.015625 191.164062 512.410156 C 191.417969 511.316406 191.683594 510.234375 191.960938 509.152344 C 188.234375 507.164062 179.390625 503.152344 171.375 499.714844 L 173.863281 493.929688 C 184.3125 498.410156 190.234375 501.179688 193.652344 502.964844 L 193.777344 502.570312 C 193.980469 501.898438 194.191406 501.242188 194.398438 500.578125 C 194.714844 499.582031 195.03125 498.597656 195.371094 497.613281 C 195.59375 496.941406 195.820312 496.273438 196.054688 495.605469 C 196.554688 494.199219 197.070312 492.800781 197.605469 491.425781 C 197.890625 490.699219 198.1875 489.980469 198.480469 489.261719 C 198.800781 488.472656 199.128906 487.691406 199.460938 486.917969 C 199.800781 486.128906 200.132812 485.355469 200.484375 484.585938 C 200.804688 483.871094 201.136719 483.164062 201.46875 482.46875 C 202.113281 481.09375 202.78125 479.738281 203.464844 478.402344 C 203.746094 477.84375 204.023438 477.289062 204.320312 476.742188 C 204.769531 475.886719 205.230469 475.046875 205.699219 474.210938 C 205.839844 473.949219 205.980469 473.691406 206.128906 473.441406 L 194.421875 464.941406 L 195.347656 463.667969 L 206.917969 472.0625 C 208.113281 470.027344 209.335938 468.023438 210.617188 466.085938 L 192.691406 450.308594 L 198.949219 443.222656 L 216.183594 458.390625 C 216.941406 457.425781 217.722656 456.488281 218.507812 455.558594 L 218.785156 455.226562 C 219.535156 454.347656 220.292969 453.488281 221.054688 452.640625 L 221.097656 452.589844 C 223.476562 449.976562 225.9375 447.527344 228.5 445.25 L 228.679688 445.09375 C 231.203125 442.851562 233.816406 440.78125 236.503906 438.890625 L 236.628906 438.800781 L 236.621094 438.804688 C 240.910156 435.796875 245.378906 433.238281 250.023438 431.191406 L 246.082031 423.085938 L 248.914062 421.707031 L 252.945312 429.992188 C 252.964844 429.980469 252.992188 429.972656 253.007812 429.96875 C 253.355469 429.832031 253.703125 429.695312 254.050781 429.566406 C 254.074219 429.5625 254.097656 429.550781 254.125 429.542969 C 257.609375 428.246094 261.179688 427.230469 264.8125 426.511719 L 264.8125 809.363281"/></g><g clip-path="url(#f)"><path fill="#F8A567" d="M 596.066406 484.183594 C 596.066406 491.53125 561.554688 486.511719 521.277344 497.019531 C 486.457031 506.101562 445.347656 486.734375 445.347656 479.386719 C 445.347656 472.039062 479.085938 466.082031 520.707031 466.082031 C 562.328125 466.082031 596.066406 476.832031 596.066406 484.183594"/></g><path fill="#29422E" d="M 483.273438 489.015625 C 483.449219 479.820312 484.578125 417.316406 482.726562 409.898438 C 481.289062 404.140625 473.851562 404.140625 471.835938 408.65625 C 468.277344 416.636719 473.085938 479.714844 473.816406 489 C 476.761719 487.625 480.53125 487.371094 483.273438 489.015625"/><path fill="#29422E" d="M 482.128906 452.179688 C 482.128906 452.179688 490.75 452.859375 492.007812 437.925781 C 493.132812 424.582031 494.34375 419.035156 497.578125 418.3125 C 500.035156 417.765625 503.0625 419.933594 502.96875 426.410156 C 502.855469 434.359375 501.171875 459.195312 482.128906 460.277344 L 482.128906 452.179688"/><path fill="#29422E" d="M 472.246094 447.777344 C 472.246094 447.777344 461.105469 444.625 458.589844 435.449219 C 456.074219 426.273438 456.074219 410.4375 458.589844 407.921875 C 459.683594 406.824219 463.621094 405.410156 464.691406 409.898438 C 466.121094 415.886719 463.980469 430.410156 466.316406 435.628906 C 467.136719 437.464844 472.246094 442.105469 472.246094 442.105469 C 472.246094 442.105469 473.226562 446.25 472.246094 447.777344"/><g clip-path="url(#g)"><path stroke-linecap="round" transform="matrix(.00794 0 0 -.00796 426.507 527.754)" fill="none" d="M 6029.446796 15203.514409 C 5924.704014 15004.152744 5886.347502 14772.873571 5847.99099 14542.085437 C 5770.786215 13617.950822 5809.142727 12693.816207 5732.429703 11769.190554 C 5694.073191 10729.661872 5847.99099 9728.434199 5809.142727 8688.905517 C 5963.552276 7456.398671 5924.704014 6185.590816 6026.988046 4960.44955" stroke="#FDFEFC" stroke-width="33.926" stroke-miterlimit="10"/></g><g clip-path="url(#h)"><path stroke-linecap="round" transform="matrix(.00794 0 0 -.00796 426.507 527.754)" fill="none" d="M 6271.879622 15372.922721 C 6233.03136 15158.33886 6155.826586 14927.059687 6117.470074 14696.271552 C 5924.704014 12500.838044 6079.113562 10305.895574 6001.908788 8110.953104 C 6155.826586 7071.424422 6194.674848 6070.196749 6264.01162 5019.865218" stroke="#FDFEFC" stroke-width="33.926" stroke-miterlimit="10"/></g><g clip-path="url(#i)"><path stroke-linecap="round" transform="matrix(.00794 0 0 -.00796 426.507 527.754)" fill="none" d="M 6461.695182 15372.922721 C 6425.30567 14387.899321 6348.592646 13425.463697 6309.744384 12423.744986 C 6233.03136 10845.055939 6233.03136 9304.667901 6309.744384 7725.978854 C 6309.744384 6840.145249 6348.592646 5954.311643 6445.467427 5054.728958" stroke="#FDFEFC" stroke-width="33.926" stroke-miterlimit="10"/></g><g clip-path="url(#j)"><path stroke-linecap="round" transform="matrix(.00794 0 0 -.00796 426.507 527.754)" fill="none" d="M 6653.477742 15323.327824 C 6695.276505 14080.018129 6618.071731 12886.303332 6695.276505 11653.796486 C 6733.633017 10267.594564 6618.071731 8881.392642 6656.428243 7494.699681 C 6656.428243 6686.450172 6618.071731 5877.709624 6669.213747 5056.202073" stroke="#FDFEFC" stroke-width="33.926" stroke-miterlimit="10"/></g><g clip-path="url(#k)"><path stroke-linecap="round" transform="matrix(.00794 0 0 -.00796 426.507 527.754)" fill="none" d="M 6848.210803 15203.514409 C 6849.194303 11807.982602 6849.194303 8419.325334 6829.032547 5038.524684" stroke="#FDFEFC" stroke-width="33.926" stroke-miterlimit="10"/></g><path stroke-linecap="round" transform="matrix(.00794 0 0 -.00796 426.507 527.754)" fill="none" d="M 7005.079102 4997.277443 C 7041.468613 7995.559037 7157.029899 11037.543064 7041.468613 14041.226081 C 7041.468613 14272.505254 7080.316875 14503.293389 7002.128601 14747.339565" stroke="#FDFEFC" stroke-width="33.926" stroke-miterlimit="10"/><path stroke-linecap="round" transform="matrix(.00794 0 0 -.00796 426.507 527.754)" fill="none" d="M 8675.554375 13555.097883 C 8675.554375 13555.097883 8632.772111 9499.610219 7209.155416 9364.08357" stroke="#FDFEFC" stroke-width="33.926" stroke-miterlimit="10"/><path stroke-linecap="round" transform="matrix(.00794 0 0 -.00796 426.507 527.754)" fill="none" d="M 8947.00046 13555.097883 C 8947.00046 13555.097883 9076.33075 10291.164416 8064.800683 9613.040132 C 8064.800683 9613.040132 7565.182527 9205.969146 7209.155416 9138.205821" stroke="#FDFEFC" stroke-width="33.926" stroke-miterlimit="10"/><path stroke-linecap="round" transform="matrix(.00794 0 0 -.00796 426.507 527.754)" fill="none" d="M 9194.842537 13737.764236 C 9194.842537 13737.764236 9241.067052 10872.063061 8675.554375 10140.906609 C 8675.554375 10140.906609 8148.88996 9251.144695 7209.155416 8957.012584" stroke="#FDFEFC" stroke-width="33.926" stroke-miterlimit="10"/><path stroke-linecap="round" transform="matrix(.00794 0 0 -.00796 426.507 527.754)" fill="none" d="M 9425.473359 13555.097883 C 9425.473359 13555.097883 9444.651615 10427.182104 8562.451839 9680.803456 C 8562.451839 9680.803456 8027.427672 9025.266947 7209.155416 8776.310385" stroke="#FDFEFC" stroke-width="33.926" stroke-miterlimit="10"/><path stroke-linecap="round" transform="matrix(.00794 0 0 -.00796 426.507 527.754)" fill="none" d="M 7318.8157 8662.880472 C 7318.8157 8662.880472 8643.590615 9033.123564 9060.102995 10140.906609 C 9060.102995 10140.906609 9580.374658 11636.119097 9625.615672 12739.482795" stroke="#FDFEFC" stroke-width="33.926" stroke-miterlimit="10"/><path stroke-linecap="round" transform="matrix(.00794 0 0 -.00796 426.507 527.754)" fill="none" d="M 5597.198411 10701.181634 C 5597.198411 10701.181634 4627.467108 11264.402889 4672.708122 12123.720411 C 4717.457386 12983.037933 4670.741121 14860.278439 4670.741121 14860.278439" stroke="#FDFEFC" stroke-width="33.926" stroke-miterlimit="10"/><g clip-path="url(#l)"><path stroke-linecap="round" transform="matrix(.00794 0 0 -.00796 426.507 527.754)" fill="none" d="M 4515.839823 15186.328059 C 4515.839823 15186.328059 4449.945302 12078.544861 4515.839823 11784.41275 C 4582.226093 11490.280638 5193.471535 10598.063531 5610.967415 10365.311242" stroke="#FDFEFC" stroke-width="33.926" stroke-miterlimit="10"/></g><g clip-path="url(#m)"><path stroke-linecap="round" transform="matrix(.00794 0 0 -.00796 426.507 527.754)" fill="none" d="M 5745.706958 10140.906609 C 5745.706958 10140.906609 4446.503051 10630.963116 4288.159501 11581.122776 C 4129.815952 12530.791397 4288.159501 15086.647226 4288.159501 15086.647226" stroke="#FDFEFC" stroke-width="33.926" stroke-miterlimit="10"/></g><g clip-path="url(#n)"><path stroke-linecap="round" transform="matrix(.00794 0 0 -.00796 426.507 527.754)" fill="none" d="M 3999.993911 15013.973516 C 3999.993911 15013.973516 3840.666861 12202.286585 4217.839229 11459.836246" stroke="#FDFEFC" stroke-width="33.926" stroke-miterlimit="10"/></g><path fill="#29422E" d="M 526.058594 468.59375 C 526.230469 459.402344 527.007812 414.054688 525.625 408.523438 C 524.519531 404.097656 518.800781 404.097656 517.253906 407.570312 C 514.605469 413.515625 517.988281 459.207031 518.714844 468.550781 C 520.875 467.699219 523.757812 467.785156 526.058594 468.59375"/><path fill="#29422E" d="M 525.164062 441.027344 C 525.164062 441.027344 531.796875 441.550781 532.761719 430.070312 C 533.625 419.8125 534.558594 415.546875 537.042969 414.996094 C 538.929688 414.574219 541.257812 416.238281 541.1875 421.21875 C 541.097656 427.328125 539.804688 446.425781 525.164062 447.253906 L 525.164062 441.027344"/><path fill="#29422E" d="M 517.566406 437.644531 C 517.566406 437.644531 509.003906 435.222656 507.070312 428.167969 C 505.136719 421.113281 505.136719 408.941406 507.070312 407.003906 C 507.910156 406.164062 510.9375 405.074219 511.761719 408.527344 C 512.859375 413.128906 511.214844 424.292969 513.007812 428.304688 C 513.640625 429.714844 517.566406 433.285156 517.566406 433.285156 C 517.566406 433.285156 518.320312 436.46875 517.566406 437.644531"/><g clip-path="url(#o)"><path stroke-linecap="round" transform="matrix(.00794 0 0 -.00796 426.507 527.754)" fill="none" d="M 11672.279813 15286.008891 C 11624.088297 15158.33886 11547.375273 15004.152744 11547.375273 14888.758677 C 11470.170499 13502.065716 11431.813987 12115.863794 11508.527011 10729.661872 C 11547.375273 9651.341141 11624.088297 8611.812459 11665.39531 7516.796417" stroke="#FDFEFC" stroke-width="26.081" stroke-miterlimit="10"/></g><g clip-path="url(#p)"><path stroke-linecap="round" transform="matrix(.00794 0 0 -.00796 426.507 527.754)" fill="none" d="M 11858.653121 15416.625155 C 11778.006096 15119.546811 11739.649584 14811.665619 11701.293072 14503.293389 C 11624.088297 12886.303332 11624.088297 11307.123246 11701.293072 9689.642151 C 11739.649584 8996.786709 11778.006096 8265.139219 11845.867617 7557.061581" stroke="#FDFEFC" stroke-width="26.081" stroke-miterlimit="10"/></g><g clip-path="url(#q)"><path stroke-linecap="round" transform="matrix(.00794 0 0 -.00796 426.507 527.754)" fill="none" d="M 12004.702917 15416.625155 C 11816.854358 12809.210274 11816.854358 10190.501506 11986.999911 7560.98989" stroke="#FDFEFC" stroke-width="26.081" stroke-miterlimit="10"/></g><g clip-path="url(#r)"><path stroke-linecap="round" transform="matrix(.00794 0 0 -.00796 426.507 527.754)" fill="none" d="M 12151.736213 15378.324145 C 12124.689954 13502.065716 12201.894728 11576.703429 12124.689954 9689.642151 C 12086.333442 8996.786709 12201.894728 8265.139219 12164.521717 7555.097427" stroke="#FDFEFC" stroke-width="26.081" stroke-miterlimit="10"/></g><g clip-path="url(#s)"><path stroke-linecap="round" transform="matrix(.00794 0 0 -.00796 426.507 527.754)" fill="none" d="M 12301.72001 15286.008891 C 12240.25124 14965.360696 12279.099502 14657.479504 12279.099502 14349.598312 C 12394.169039 12077.562784 12279.099502 9805.527257 12286.475755 7539.875231" stroke="#FDFEFC" stroke-width="26.081" stroke-miterlimit="10"/></g><path stroke-linecap="round" transform="matrix(.00794 0 0 -.00796 426.507 527.754)" fill="none" d="M 12423.182298 7516.305379 C 12433.017301 9998.014382 12548.578587 12462.537034 12419.740047 14935.407343" stroke="#FDFEFC" stroke-width="26.081" stroke-miterlimit="10"/><path stroke-linecap="round" transform="matrix(.00794 0 0 -.00796 426.507 527.754)" fill="none" d="M 13706.650199 14019.129345 C 13706.650199 14019.129345 13673.211189 10901.525376 12579.067096 10797.425196" stroke="#FDFEFC" stroke-width="26.081" stroke-miterlimit="10"/><path stroke-linecap="round" transform="matrix(.00794 0 0 -.00796 426.507 527.754)" fill="none" d="M 13915.152265 14019.129345 C 13915.152265 14019.129345 14014.485796 11509.922181 13237.028802 10988.439205 C 13237.028802 10988.439205 12852.971932 10675.647627 12579.067096 10623.597537" stroke="#FDFEFC" stroke-width="26.081" stroke-miterlimit="10"/><path stroke-linecap="round" transform="matrix(.00794 0 0 -.00796 426.507 527.754)" fill="none" d="M 14105.459574 14159.56638 C 14105.459574 14159.56638 14141.357335 11956.276254 13706.650199 11394.528114 C 13706.650199 11394.528114 13301.448072 10710.511367 12579.067096 10484.633618" stroke="#FDFEFC" stroke-width="26.081" stroke-miterlimit="10"/><path stroke-linecap="round" transform="matrix(.00794 0 0 -.00796 426.507 527.754)" fill="none" d="M 14282.98138 14019.129345 C 14282.98138 14019.129345 14297.733884 11614.5134 13619.610422 11040.980334 C 13619.610422 11040.980334 13208.015543 10536.683708 12579.067096 10345.17866" stroke="#FDFEFC" stroke-width="26.081" stroke-miterlimit="10"/><path stroke-linecap="round" transform="matrix(.00794 0 0 -.00796 426.507 527.754)" fill="none" d="M 12663.156373 10258.264831 C 12663.156373 10258.264831 13681.570941 10542.576171 14002.192042 11394.528114 C 14002.192042 11394.528114 14401.984917 12544.049439 14436.899178 13392.073073" stroke="#FDFEFC" stroke-width="26.081" stroke-miterlimit="10"/><path stroke-linecap="round" transform="matrix(.00794 0 0 -.00796 426.507 527.754)" fill="none" d="M 11339.856709 11825.168952 C 11339.856709 11825.168952 10594.363475 12257.773945 10629.277736 12918.711879 C 10663.700247 13579.649812 10627.802486 15022.81221 10627.802486 15022.81221" stroke="#FDFEFC" stroke-width="26.081" stroke-miterlimit="10"/><g clip-path="url(#t)"><path stroke-linecap="round" transform="matrix(.00794 0 0 -.00796 426.507 527.754)" fill="none" d="M 10508.798948 15273.241888 C 10508.798948 15273.241888 10457.656932 12883.848139 10508.798948 12657.97039 C 10559.449214 12432.092642 11029.562361 11746.11174 11350.675212 11566.882657" stroke="#FDFEFC" stroke-width="26.081" stroke-miterlimit="10"/></g><g clip-path="url(#u)"><path stroke-linecap="round" transform="matrix(.00794 0 0 -.00796 426.507 527.754)" fill="none" d="M 11453.942744 11394.528114 C 11453.942744 11394.528114 10455.198182 11771.154708 10333.735894 12501.329082 C 10211.781855 13231.503456 10333.735894 15196.639869 10333.735894 15196.639869" stroke="#FDFEFC" stroke-width="26.081" stroke-miterlimit="10"/></g><g clip-path="url(#v)"><path stroke-linecap="round" transform="matrix(.00794 0 0 -.00796 426.507 527.754)" fill="none" d="M 10111.956574 15140.661471 C 10111.956574 15140.661471 9989.510786 12979.109624 10279.643377 12408.52279" stroke="#FDFEFC" stroke-width="26.081" stroke-miterlimit="10"/></g><path fill="#29422E" d="M 572.246094 484.429688 C 572.394531 476.691406 573.335938 424.433594 571.789062 418.230469 C 570.585938 413.414062 564.359375 413.414062 562.675781 417.191406 C 559.800781 423.644531 563.453125 473.101562 564.257812 483.476562 C 566.570312 482.054688 569.714844 483.457031 572.246094 484.429688"/><path fill="#29422E" d="M 571.289062 453.613281 C 571.289062 453.613281 578.503906 454.183594 579.558594 441.6875 C 580.496094 430.519531 581.511719 425.875 584.21875 425.273438 C 586.273438 424.816406 588.808594 426.628906 588.730469 432.050781 C 588.632812 438.703125 587.226562 459.488281 571.289062 460.390625 L 571.289062 453.613281"/><path fill="#29422E" d="M 563.015625 449.929688 C 563.015625 449.929688 553.695312 447.292969 551.589844 439.613281 C 549.484375 431.933594 549.484375 418.683594 551.589844 416.574219 C 552.503906 415.660156 555.800781 414.476562 556.695312 418.230469 C 557.890625 423.242188 556.101562 435.398438 558.054688 439.761719 C 558.742188 441.300781 563.015625 445.183594 563.015625 445.183594 C 563.015625 445.183594 563.835938 448.652344 563.015625 449.929688"/><path stroke-linecap="round" transform="matrix(.00849 0 0 -.0085 426.507 527.754)" fill="none" d="M 16299.849058 13192.102454 C 16216.985322 13000.412601 16180.61735 12820.214946 16144.709731 12640.01729 C 16108.802112 11882.911324 16108.802112 11125.805359 16072.894493 10368.699393 C 16036.52652 9683.764427 16108.802112 8998.82946 16144.709731 8313.894494 C 16180.61735 7304.419873 16252.892941 6294.945252 16292.483393 5289.148134" stroke="#FDFEFC" stroke-width="26.578" stroke-miterlimit="10"/><path stroke-linecap="round" transform="matrix(.00858 0 0 -.0086 426.507 527.754)" fill="none" d="M 16300.151127 13171.735788 C 16137.250631 12707.823158 16137.250631 12173.483047 16137.250631 11674.583862 C 16065.811028 10285.117826 16065.811028 8895.197419 16137.250631 7505.277011 C 16137.250631 6756.928234 16244.182521 6009.033827 16286.500248 5262.956904" stroke="#FDFEFC" stroke-width="26.272" stroke-miterlimit="10"/><path stroke-linecap="round" transform="matrix(.00866 0 0 -.00867 426.507 527.754)" fill="none" d="M 16299.911404 13054.11164 C 16204.754325 11852.634331 16133.950242 10687.183328 16169.577774 9486.606677 C 16169.577774 9310.077777 16169.577774 9133.548877 16169.577774 8957.019977 C 16098.773692 7720.867348 16239.930875 6449.589071 16283.225092 5197.674933" stroke="#FDFEFC" stroke-width="26.037" stroke-miterlimit="10"/><path stroke-linecap="round" transform="matrix(.00876 0 0 -.00877 426.507 527.754)" fill="none" d="M 16260.391459 12868.040378 C 16230.075037 10950.185171 16300.070307 8994.934459 16230.075037 7074.408145 C 16230.075037 6411.083108 16265.295587 5782.927654 16272.428862 5112.479664" stroke="#FDFEFC" stroke-width="25.741" stroke-miterlimit="10"/><path stroke-linecap="round" transform="matrix(.00882 0 0 -.00883 426.507 527.754)" fill="none" d="M 16300.079741 12692.772077 C 16296.536553 10149.791082 16296.536553 7582.928179 16285.464092 5044.369761" stroke="#FDFEFC" stroke-width="25.572" stroke-miterlimit="10"/><path stroke-linecap="round" transform="matrix(.00893 0 0 -.00894 426.507 527.754)" fill="none" d="M 16214.459371 4930.89541 C 16265.637788 7248.936588 16265.637788 9544.264719 16265.637788 11873.225631 C 16162.843533 11976.307922 16300.194154 12078.953423 16212.27226 12196.012974" stroke="#FDFEFC" stroke-width="25.254" stroke-miterlimit="10"/><path stroke-linecap="round" transform="matrix(.00956 0 0 -.00958 426.507 527.754)" fill="none" d="M 16300.000496 10558.473301 C 16300.000496 10558.473301 16270.187556 7739.721803 15280.642966 7645.518737" stroke="#FDFEFC" stroke-width="23.579" stroke-miterlimit="10"/><path stroke-linecap="round" transform="matrix(.00973 0 0 -.00974 426.507 527.754)" fill="none" d="M 16211.734961 10381.27675 C 16211.734961 10381.27675 16300.070913 8150.412977 15609.042853 7687.320299 C 15609.042853 7687.320299 15267.34333 7409.063747 15024.419462 7362.554006" stroke="#FDFEFC" stroke-width="23.183" stroke-miterlimit="10"/><path stroke-linecap="round" transform="matrix(.0098 0 0 -.0098 426.507 527.754)" fill="none" d="M 16268.791099 10433.606744 C 16268.791099 10433.606744 16299.89686 8488.725886 15916.259148 7992.550303 C 15916.259148 7992.550303 15558.542903 7388.856736 14921.273606 7189.351144" stroke="#FDFEFC" stroke-width="23.024" stroke-miterlimit="10"/><path stroke-linecap="round" transform="matrix(.00988 0 0 -.0099 426.507 527.754)" fill="none" d="M 16286.833078 10223.108786 C 16286.833078 10223.108786 16299.882094 8118.149989 15706.349561 7615.897581 C 15706.349561 7615.897581 15346.117624 7174.452461 14795.686387 7007.034991" stroke="#FDFEFC" stroke-width="22.83" stroke-miterlimit="10"/><path stroke-linecap="round" transform="matrix(.00995 0 0 -.00997 426.507 527.754)" fill="none" d="M 14759.255469 6879.773582 C 14759.255469 6879.773582 15643.92692 7126.684174 15922.202012 7866.632107 C 15922.202012 7866.632107 16269.947755 8865.6402 16300.169451 9602.452761" stroke="#FDFEFC" stroke-width="22.661" stroke-miterlimit="10"/><path stroke-linecap="round" transform="matrix(.0083 0 0 -.00832 426.507 527.754)" fill="none" d="M 16300.247599 9870.511302 C 16300.247599 9870.511302 15524.072188 10320.708235 15560.271768 11008.443904 C 15596.471348 11696.179574 15558.861395 13197.931387 15558.861395 13197.931387" stroke="#FDFEFC" stroke-width="27.142" stroke-miterlimit="10"/><path stroke-linecap="round" transform="matrix(.00832 0 0 -.00833 426.507 527.754)" fill="none" d="M 15424.363225 13449.594694 C 15424.363225 13449.594694 15371.279761 10964.849453 15424.363225 10729.837679 C 15477.446689 10494.35682 15966.472226 9781.347047 16300.005494 9595.120152" stroke="#FDFEFC" stroke-width="27.123" stroke-miterlimit="10"/><path stroke-linecap="round" transform="matrix(.00837 0 0 -.00838 426.507 527.754)" fill="none" d="M 16300.140258 9353.805358 C 16300.140258 9353.805358 15268.290854 9743.392789 15142.284821 10497.868926 C 15016.745477 11251.87905 15142.284821 13282.300624 15142.284821 13282.300624" stroke="#FDFEFC" stroke-width="26.945" stroke-miterlimit="10"/><path stroke-linecap="round" transform="matrix(.00794 0 0 -.00796 426.507 527.754)" fill="none" d="M 15713.974328 13934.17967 C 15713.974328 13934.17967 15580.710036 11581.122776 15895.921885 10959.467929" stroke="#FDFEFC" stroke-width="28.391" stroke-miterlimit="10"/></svg>