<svg xmlns="http://www.w3.org/2000/svg" width="375" viewBox="0 0 375 375" height="375" version="1.0"><defs><clipPath id="a"><path d="M 115 130 L 265 130 L 265 331.074219 L 115 331.074219 Z M 115 130"/></clipPath><clipPath id="b"><path d="M 43.824219 43.824219 L 130 43.824219 L 130 130 L 43.824219 130 Z M 43.824219 43.824219"/></clipPath><clipPath id="c"><path d="M 216 43.824219 L 331.074219 43.824219 L 331.074219 121 L 216 121 Z M 216 43.824219"/></clipPath><clipPath id="d"><path d="M 43.824219 235 L 121 235 L 121 331.074219 L 43.824219 331.074219 Z M 43.824219 235"/></clipPath><clipPath id="e"><path d="M 225 225 L 331.074219 225 L 331.074219 331.074219 L 225 331.074219 Z M 225 225"/></clipPath></defs><g clip-path="url(#a)"><path fill="#9B744B" d="M 130 130 C 122.082031 130 115.636719 136.445312 115.636719 144.363281 C 115.636719 144.652344 115.667969 144.9375 115.71875 145.21875 L 123.863281 190.023438 C 125.074219 196.695312 130.765625 201.582031 137.503906 201.804688 L 158.726562 205.785156 L 158.726562 293.902344 C 156.144531 293.234375 153.566406 292.515625 151.066406 291.683594 L 148.027344 300.761719 C 151.140625 301.804688 154.363281 302.738281 157.589844 303.535156 L 158.726562 298.941406 L 158.726562 314.320312 C 158.726562 323.558594 166.242188 331.074219 175.480469 331.074219 C 180.175781 331.074219 184.40625 329.128906 187.449219 326.011719 C 190.496094 329.128906 194.726562 331.074219 199.417969 331.074219 C 208.660156 331.074219 216.175781 323.558594 216.175781 314.320312 L 216.175781 205.804688 L 238.0625 201.808594 C 244.328125 201.597656 249.785156 197.308594 251.445312 191.234375 L 263.882812 145.628906 C 263.992188 145.210938 264.050781 144.789062 264.050781 144.363281 C 264.050781 136.445312 257.605469 130 249.6875 130 C 242.015625 130 235.726562 136.046875 235.34375 143.625 L 227.914062 169.617188 C 227.335938 171.660156 225.445312 173.089844 223.3125 173.089844 L 206.476562 173.089844 C 209.515625 169.078125 211.386719 164.136719 211.386719 158.726562 C 211.386719 145.527344 200.648438 134.789062 187.449219 134.789062 C 174.25 134.789062 163.511719 145.527344 163.511719 158.726562 C 163.511719 164.136719 165.386719 169.078125 168.425781 173.089844 L 152.667969 173.089844 C 150.304688 173.089844 148.265625 171.320312 147.933594 168.976562 L 144.363281 143.988281 C 144.15625 136.242188 137.792969 130 130 130 Z M 173.089844 158.726562 C 173.089844 150.808594 179.53125 144.363281 187.449219 144.363281 C 195.371094 144.363281 201.8125 150.808594 201.8125 158.726562 C 201.8125 166.644531 195.371094 173.089844 187.449219 173.089844 C 179.53125 173.089844 173.089844 166.644531 173.089844 158.726562 Z M 152.664062 182.664062 L 223.3125 182.664062 C 229.695312 182.664062 235.375 178.378906 237.125 172.246094 L 244.71875 145.679688 C 244.839844 145.253906 244.902344 144.808594 244.902344 144.363281 C 244.902344 141.726562 247.046875 139.574219 249.6875 139.574219 C 252.148438 139.574219 254.179688 141.441406 254.445312 143.832031 L 242.207031 188.714844 C 241.640625 190.789062 239.746094 192.238281 237.589844 192.238281 C 237.296875 192.238281 237.015625 192.261719 236.730469 192.316406 L 210.527344 197.101562 C 208.253906 197.519531 206.601562 199.5 206.601562 201.8125 L 206.601562 314.320312 C 206.601562 318.277344 203.378906 321.5 199.417969 321.5 C 195.460938 321.5 192.238281 318.277344 192.238281 314.320312 L 192.238281 249.6875 L 182.664062 249.6875 L 182.664062 314.320312 C 182.664062 318.277344 179.441406 321.5 175.480469 321.5 C 171.523438 321.5 168.300781 318.277344 168.300781 314.320312 L 168.300781 201.8125 C 168.300781 199.511719 166.660156 197.535156 164.398438 197.105469 L 138.875 192.320312 C 138.585938 192.265625 138.285156 192.238281 137.992188 192.238281 C 135.679688 192.238281 133.695312 190.585938 133.28125 188.308594 L 125.226562 144.003906 C 125.410156 141.535156 127.484375 139.574219 130 139.574219 C 132.644531 139.574219 134.789062 141.726562 134.789062 144.363281 C 134.789062 144.589844 134.800781 144.816406 134.835938 145.042969 L 138.449219 170.332031 C 139.457031 177.363281 145.566406 182.664062 152.664062 182.664062 Z M 152.664062 182.664062"/></g><g clip-path="url(#b)"><path fill="#9B744B" d="M 86.914062 130 C 110.671875 130 130 110.667969 130 86.914062 C 130 63.15625 110.671875 43.824219 86.914062 43.824219 C 63.152344 43.824219 43.824219 63.15625 43.824219 86.914062 C 43.824219 110.667969 63.152344 130 86.914062 130 Z M 86.914062 53.402344 C 105.386719 53.402344 120.425781 68.433594 120.425781 86.914062 C 120.425781 105.394531 105.386719 120.425781 86.914062 120.425781 C 68.4375 120.425781 53.402344 105.394531 53.402344 86.914062 C 53.402344 68.433594 68.4375 53.402344 86.914062 53.402344 Z M 86.914062 53.402344"/></g><path fill="#9B744B" d="M 82.125 96.488281 L 101.277344 96.488281 L 101.277344 86.914062 L 86.914062 86.914062 L 86.914062 67.761719 L 77.339844 67.761719 L 77.339844 91.699219 C 77.339844 94.34375 79.476562 96.488281 82.125 96.488281 Z M 82.125 96.488281"/><g clip-path="url(#c)"><path fill="#9B744B" d="M 326.289062 91.699219 L 321.5 91.699219 L 321.5 48.613281 C 321.5 45.96875 319.359375 43.824219 316.714844 43.824219 L 230.539062 43.824219 C 227.890625 43.824219 225.75 45.96875 225.75 48.613281 L 225.75 91.699219 L 220.964844 91.699219 C 218.316406 91.699219 216.175781 93.84375 216.175781 96.488281 C 216.175781 109.6875 226.914062 120.425781 240.113281 120.425781 L 307.136719 120.425781 C 320.335938 120.425781 331.074219 109.6875 331.074219 96.488281 C 331.074219 93.84375 328.9375 91.699219 326.289062 91.699219 Z M 235.324219 53.402344 L 311.925781 53.402344 L 311.925781 91.699219 L 235.324219 91.699219 Z M 307.136719 110.851562 L 240.113281 110.851562 C 233.871094 110.851562 228.546875 106.847656 226.570312 101.277344 L 320.683594 101.277344 C 318.703125 106.847656 313.382812 110.851562 307.136719 110.851562 Z M 307.136719 110.851562"/></g><path fill="#9B744B" d="M 249.6875 67.761719 L 259.261719 67.761719 L 259.261719 82.125 L 249.6875 82.125 Z M 249.6875 67.761719"/><path fill="#9B744B" d="M 268.839844 62.976562 L 278.414062 62.976562 L 278.414062 82.125 L 268.839844 82.125 Z M 268.839844 62.976562"/><path fill="#9B744B" d="M 287.988281 67.761719 L 297.5625 67.761719 L 297.5625 82.125 L 287.988281 82.125 Z M 287.988281 67.761719"/><g clip-path="url(#d)"><path fill="#9B744B" d="M 48.613281 331.074219 L 115.636719 331.074219 C 118.285156 331.074219 120.425781 328.929688 120.425781 326.289062 L 120.425781 259.261719 C 120.425781 257.808594 119.765625 256.433594 118.628906 255.523438 L 94.691406 236.375 C 93.839844 235.695312 92.792969 235.324219 91.699219 235.324219 L 48.613281 235.324219 C 45.964844 235.324219 43.824219 237.46875 43.824219 240.113281 L 43.824219 326.289062 C 43.824219 328.929688 45.964844 331.074219 48.613281 331.074219 Z M 53.402344 244.902344 L 90.019531 244.902344 L 110.851562 261.5625 L 110.851562 321.5 L 53.402344 321.5 Z M 53.402344 244.902344"/></g><g clip-path="url(#e)"><path fill="#9B744B" d="M 278.414062 225.75 C 249.378906 225.75 225.75 249.378906 225.75 278.414062 C 225.75 295.550781 234.019531 310.757812 246.730469 320.378906 C 246.761719 320.40625 246.773438 320.449219 246.804688 320.472656 C 247.007812 320.625 247.222656 320.753906 247.429688 320.902344 C 248.28125 321.523438 249.136719 322.128906 250.023438 322.699219 C 250.445312 322.96875 250.875 323.214844 251.300781 323.472656 C 252.160156 323.992188 253.015625 324.511719 253.90625 324.984375 C 254.667969 325.386719 255.449219 325.738281 256.222656 326.101562 C 257.195312 326.554688 258.171875 326.988281 259.171875 327.378906 C 260.195312 327.785156 261.226562 328.179688 262.273438 328.519531 C 262.816406 328.691406 263.367188 328.839844 263.910156 328.992188 C 264.933594 329.285156 265.957031 329.558594 266.996094 329.789062 C 267.550781 329.914062 268.105469 330.023438 268.664062 330.128906 C 269.773438 330.332031 270.882812 330.5 272.003906 330.640625 C 272.503906 330.703125 273 330.773438 273.5 330.820312 C 275.128906 330.980469 276.761719 331.074219 278.414062 331.074219 C 280.066406 331.074219 281.699219 330.980469 283.324219 330.828125 C 283.828125 330.777344 284.324219 330.707031 284.824219 330.644531 C 285.945312 330.507812 287.058594 330.34375 288.160156 330.132812 C 288.722656 330.027344 289.277344 329.914062 289.832031 329.792969 C 290.871094 329.5625 291.894531 329.289062 292.914062 329 C 293.460938 328.839844 294.011719 328.695312 294.550781 328.523438 C 295.601562 328.183594 296.628906 327.792969 297.652344 327.382812 C 298.65625 326.992188 299.632812 326.554688 300.601562 326.105469 C 301.378906 325.742188 302.160156 325.394531 302.921875 324.992188 C 303.8125 324.523438 304.664062 324 305.523438 323.476562 C 305.949219 323.21875 306.382812 322.96875 306.804688 322.703125 C 307.6875 322.132812 308.550781 321.523438 309.398438 320.90625 C 309.605469 320.757812 309.820312 320.628906 310.019531 320.476562 C 310.054688 320.453125 310.0625 320.410156 310.097656 320.386719 C 322.808594 310.757812 331.074219 295.550781 331.074219 278.414062 C 331.074219 249.378906 307.449219 225.75 278.414062 225.75 Z M 254.476562 314.179688 L 254.476562 302.351562 C 254.476562 291.789062 263.066406 283.199219 273.625 283.199219 L 283.199219 283.199219 C 293.761719 283.199219 302.351562 291.789062 302.351562 302.351562 L 302.351562 314.179688 C 300.570312 315.378906 298.710938 316.425781 296.792969 317.324219 C 296.789062 317.324219 296.78125 317.332031 296.777344 317.332031 C 285.253906 322.722656 271.566406 322.722656 260.042969 317.332031 C 260.039062 317.332031 260.035156 317.324219 260.03125 317.324219 C 258.113281 316.425781 256.257812 315.378906 254.476562 314.179688 Z M 278.414062 273.625 C 273.132812 273.625 268.839844 269.332031 268.839844 264.050781 C 268.839844 258.769531 273.132812 254.476562 278.414062 254.476562 C 283.695312 254.476562 287.988281 258.769531 287.988281 264.050781 C 287.988281 269.332031 283.695312 273.625 278.414062 273.625 Z M 311.925781 305.433594 L 311.925781 302.351562 C 311.925781 290.175781 304.304688 279.773438 293.589844 275.597656 C 296.046875 272.382812 297.5625 268.40625 297.5625 264.050781 C 297.5625 253.488281 288.972656 244.902344 278.414062 244.902344 C 267.851562 244.902344 259.261719 253.488281 259.261719 264.050781 C 259.261719 268.40625 260.78125 272.382812 263.238281 275.597656 C 252.523438 279.773438 244.902344 290.175781 244.902344 302.351562 L 244.902344 305.433594 C 238.925781 298.039062 235.324219 288.640625 235.324219 278.414062 C 235.324219 254.65625 254.652344 235.324219 278.414062 235.324219 C 302.171875 235.324219 321.5 254.65625 321.5 278.414062 C 321.5 288.644531 317.902344 298.039062 311.925781 305.433594 Z M 311.925781 305.433594"/></g><path fill="#9B744B" d="M 62.976562 259.261719 L 96.488281 259.261719 L 96.488281 268.839844 L 62.976562 268.839844 Z M 62.976562 259.261719"/><path fill="#9B744B" d="M 62.976562 278.414062 L 101.277344 278.414062 L 101.277344 287.988281 L 62.976562 287.988281 Z M 62.976562 278.414062"/><path fill="#9B744B" d="M 62.976562 297.5625 L 101.277344 297.5625 L 101.277344 307.136719 L 62.976562 307.136719 Z M 62.976562 297.5625"/><path fill="#9B744B" d="M 215.152344 61.28125 C 211.910156 60.542969 208.621094 59.9375 205.367188 59.464844 L 204 68.941406 C 207.003906 69.371094 210.042969 69.9375 213.039062 70.617188 Z M 215.152344 61.28125"/><path fill="#9B744B" d="M 141.078125 77.5 L 137.207031 68.746094 C 134.195312 70.074219 131.183594 71.550781 128.273438 73.128906 L 132.824219 81.550781 C 135.519531 80.089844 138.296875 78.730469 141.078125 77.5 Z M 141.078125 77.5"/><path fill="#9B744B" d="M 187.449219 67.761719 C 189.941406 67.761719 192.40625 67.84375 194.855469 67.996094 L 195.476562 58.441406 C 192.816406 58.273438 190.140625 58.1875 187.449219 58.1875 L 185.519531 58.203125 L 185.667969 67.777344 Z M 187.449219 67.761719"/><path fill="#9B744B" d="M 158.417969 71.460938 L 156.007812 62.191406 C 152.816406 63.019531 149.613281 63.996094 146.480469 65.085938 L 149.628906 74.136719 C 152.519531 73.125 155.476562 72.230469 158.417969 71.460938 Z M 158.417969 71.460938"/><path fill="#9B744B" d="M 176.496094 68.277344 L 175.59375 58.742188 C 172.292969 59.054688 168.976562 59.503906 165.730469 60.074219 L 167.386719 69.507812 C 170.382812 68.980469 173.449219 68.566406 176.496094 68.277344 Z M 176.496094 68.277344"/><path fill="#9B744B" d="M 80.214844 224.019531 C 79.121094 221.179688 78.125 218.253906 77.261719 215.328125 L 68.078125 218.039062 C 69.011719 221.21875 70.09375 224.386719 71.285156 227.46875 Z M 80.214844 224.019531"/><path fill="#9B744B" d="M 63.738281 168.78125 L 73.253906 169.835938 C 73.589844 166.800781 74.054688 163.746094 74.632812 160.753906 L 65.234375 158.9375 C 64.609375 162.171875 64.105469 165.484375 63.738281 168.78125 Z M 63.738281 168.78125"/><path fill="#9B744B" d="M 62.976562 182.664062 C 62.976562 184.667969 63.023438 186.664062 63.113281 188.648438 L 72.679688 188.203125 C 72.597656 186.367188 72.550781 184.519531 72.550781 182.664062 C 72.550781 181.441406 72.570312 180.226562 72.609375 179.015625 L 63.042969 178.699219 C 62.996094 180.015625 62.976562 181.335938 62.976562 182.664062 Z M 62.976562 182.664062"/><path fill="#9B744B" d="M 75.007812 206.417969 C 74.378906 203.417969 73.867188 200.367188 73.484375 197.355469 L 63.980469 198.566406 C 64.398438 201.828125 64.953125 205.132812 65.636719 208.382812 Z M 75.007812 206.417969"/><path fill="#9B744B" d="M 79.554688 143.054688 L 70.570312 139.761719 C 69.425781 142.878906 68.394531 146.066406 67.515625 149.238281 L 76.734375 151.804688 C 77.554688 148.878906 78.496094 145.9375 79.554688 143.054688 Z M 79.554688 143.054688"/><path fill="#9B744B" d="M 129.722656 292.972656 C 132.65625 294.507812 135.683594 295.945312 138.71875 297.238281 L 142.46875 288.429688 C 139.671875 287.238281 136.875 285.910156 134.164062 284.488281 Z M 129.722656 292.972656"/><path fill="#9B744B" d="M 299.023438 210.238281 L 308.316406 212.53125 C 308.890625 210.210938 309.398438 207.855469 309.839844 205.480469 L 300.425781 203.726562 C 300.019531 205.921875 299.550781 208.09375 299.023438 210.238281 Z M 299.023438 210.238281"/><path fill="#9B744B" d="M 301.308594 167.125 C 301.71875 170.160156 302.011719 173.230469 302.171875 176.265625 L 311.738281 175.753906 C 311.5625 172.464844 311.242188 169.128906 310.800781 165.839844 Z M 301.308594 167.125"/><path fill="#9B744B" d="M 311.890625 185.695312 L 302.316406 185.46875 C 302.246094 188.488281 302.054688 191.578125 301.738281 194.644531 L 311.265625 195.625 C 311.605469 192.304688 311.816406 188.957031 311.890625 185.695312 Z M 311.890625 185.695312"/><path fill="#9B744B" d="M 290.664062 132.105469 C 292.003906 134.847656 293.253906 137.671875 294.371094 140.503906 L 303.28125 136.996094 C 302.0625 133.917969 300.714844 130.851562 299.253906 127.886719 Z M 290.664062 132.105469"/><path fill="#9B744B" d="M 297.402344 149.1875 C 298.28125 152.074219 299.0625 155.066406 299.722656 158.078125 L 309.074219 156.03125 C 308.359375 152.765625 307.511719 149.523438 306.5625 146.394531 Z M 297.402344 149.1875"/></svg>