<svg xmlns="http://www.w3.org/2000/svg" width="375" viewBox="0 0 375 375" height="375" version="1.0"><defs><clipPath id="a"><path d="M 310 139 L 334.585938 139 L 334.585938 164 L 310 164 Z M 310 139"/></clipPath><clipPath id="b"><path d="M 139 39.511719 L 164 39.511719 L 164 64 L 139 64 Z M 139 39.511719"/></clipPath><clipPath id="c"><path d="M 40.585938 212 L 65 212 L 65 237 L 40.585938 237 Z M 40.585938 212"/></clipPath><clipPath id="d"><path d="M 211 312 L 236 312 L 236 335.761719 L 211 335.761719 Z M 211 312"/></clipPath></defs><path fill="#9B744B" d="M 184.035156 252.542969 C 165.992188 252.542969 134.972656 251.261719 129.992188 242.691406 C 125.667969 235.257812 123.980469 206.761719 123.851562 184.617188 C 123.765625 169.902344 124.242188 135.058594 130.550781 129.363281 C 137.394531 123.183594 179.5625 122.867188 187.945312 122.867188 C 199.300781 122.867188 236.894531 123.332031 244.027344 129.292969 C 250.820312 134.964844 251.46875 166.957031 251.25 185.519531 C 251.039062 203.527344 249.390625 235.871094 244.546875 242.878906 C 238.058594 252.273438 189.546875 252.542969 184.035156 252.542969 Z M 187.945312 128.613281 C 154.839844 128.613281 136.703125 131.542969 134.394531 133.625 C 132.429688 135.472656 129.386719 150.972656 129.59375 184.703125 C 129.753906 211.136719 132.058594 234.824219 134.953125 239.800781 C 136.527344 242.507812 151.242188 246.796875 184.035156 246.796875 C 216.761719 246.796875 237.796875 242.550781 239.824219 239.613281 C 242.351562 235.957031 245.167969 214.699219 245.511719 185.449219 C 245.910156 151.222656 242.554688 135.542969 240.347656 133.695312 C 237.394531 131.234375 218.027344 128.613281 187.945312 128.613281 Z M 187.945312 128.613281"/><path fill="#9B744B" d="M 283.957031 209.933594 L 248.410156 209.933594 C 246.824219 209.933594 245.542969 208.648438 245.542969 207.0625 C 245.542969 205.476562 246.824219 204.191406 248.410156 204.191406 L 283.957031 204.191406 C 285.542969 204.191406 286.828125 205.476562 286.828125 207.0625 C 286.824219 208.648438 285.542969 209.933594 283.957031 209.933594 Z M 283.957031 209.933594"/><path fill="#9B744B" d="M 283.957031 153.375 L 248.410156 153.375 C 246.824219 153.375 245.542969 152.09375 245.542969 150.503906 C 245.542969 148.917969 246.824219 147.632812 248.410156 147.632812 L 283.957031 147.632812 C 285.542969 147.632812 286.828125 148.917969 286.828125 150.503906 C 286.824219 152.09375 285.542969 153.375 283.957031 153.375 Z M 283.957031 153.375"/><path fill="#9B744B" d="M 270.214844 172.53125 L 250.460938 172.53125 C 248.875 172.53125 247.589844 171.246094 247.589844 169.660156 C 247.589844 168.074219 248.875 166.789062 250.460938 166.789062 L 270.214844 166.789062 C 271.800781 166.789062 273.085938 168.074219 273.085938 169.660156 C 273.085938 171.246094 271.800781 172.53125 270.214844 172.53125 Z M 270.214844 172.53125"/><path fill="#9B744B" d="M 288.003906 192.816406 L 248.410156 192.816406 C 246.824219 192.816406 245.542969 191.53125 245.542969 189.945312 C 245.542969 188.359375 246.824219 187.074219 248.410156 187.074219 L 285.652344 187.074219 L 315.15625 158.035156 C 316.289062 156.921875 318.105469 156.9375 319.21875 158.066406 C 320.328125 159.199219 320.3125 161.015625 319.183594 162.128906 Z M 288.003906 192.816406"/><path fill="#9B744B" d="M 292.976562 226.582031 L 248.410156 226.582031 C 246.824219 226.582031 245.542969 225.296875 245.542969 223.710938 C 245.542969 222.125 246.824219 220.839844 248.410156 220.839844 L 292.976562 220.839844 C 294.5625 220.839844 295.847656 222.125 295.847656 223.710938 C 295.847656 225.296875 294.5625 226.582031 292.976562 226.582031 Z M 292.976562 226.582031"/><path fill="#9B744B" d="M 301.996094 235.609375 C 295.441406 235.609375 290.105469 230.273438 290.105469 223.710938 C 290.105469 217.15625 295.441406 211.816406 301.996094 211.816406 C 308.554688 211.816406 313.890625 217.15625 313.890625 223.710938 C 313.890625 230.273438 308.554688 235.609375 301.996094 235.609375 Z M 301.996094 217.558594 C 298.605469 217.558594 295.847656 220.320312 295.847656 223.710938 C 295.847656 227.105469 298.605469 229.867188 301.996094 229.867188 C 305.390625 229.867188 308.148438 227.105469 308.148438 223.710938 C 308.148438 220.320312 305.390625 217.558594 301.996094 217.558594 Z M 301.996094 217.558594"/><g clip-path="url(#a)"><path fill="#9B744B" d="M 322.566406 163.140625 C 316.011719 163.140625 310.675781 157.804688 310.675781 151.246094 C 310.675781 144.6875 316.011719 139.351562 322.566406 139.351562 C 329.125 139.351562 334.460938 144.6875 334.460938 151.246094 C 334.460938 157.804688 329.125 163.140625 322.566406 163.140625 Z M 322.566406 145.09375 C 319.175781 145.09375 316.417969 147.855469 316.417969 151.246094 C 316.417969 154.640625 319.175781 157.402344 322.566406 157.402344 C 325.960938 157.402344 328.71875 154.640625 328.71875 151.246094 C 328.71875 147.851562 325.960938 145.09375 322.566406 145.09375 Z M 322.566406 145.09375"/></g><path fill="#9B744B" d="M 207.136719 128.507812 C 205.550781 128.507812 204.265625 127.222656 204.265625 125.636719 L 204.265625 90.078125 C 204.265625 88.496094 205.550781 87.207031 207.136719 87.207031 C 208.722656 87.207031 210.007812 88.492188 210.007812 90.078125 L 210.007812 125.636719 C 210.007812 127.222656 208.722656 128.507812 207.136719 128.507812 Z M 207.136719 128.507812"/><path fill="#9B744B" d="M 150.601562 128.507812 C 149.015625 128.507812 147.730469 127.222656 147.730469 125.636719 L 147.730469 90.078125 C 147.730469 88.496094 149.015625 87.207031 150.601562 87.207031 C 152.1875 87.207031 153.472656 88.492188 153.472656 90.078125 L 153.472656 125.636719 C 153.472656 127.222656 152.1875 128.507812 150.601562 128.507812 Z M 150.601562 128.507812"/><path fill="#9B744B" d="M 169.75 126.457031 C 168.164062 126.457031 166.878906 125.171875 166.878906 123.585938 L 166.878906 103.828125 C 166.878906 102.242188 168.164062 100.957031 169.75 100.957031 C 171.335938 100.957031 172.621094 102.242188 172.621094 103.828125 L 172.621094 123.585938 C 172.621094 125.171875 171.335938 126.457031 169.75 126.457031 Z M 169.75 126.457031"/><path fill="#9B744B" d="M 190.027344 128.507812 C 188.441406 128.507812 187.15625 127.222656 187.15625 125.636719 L 187.15625 88.382812 L 158.128906 58.867188 C 157.019531 57.738281 157.03125 55.917969 158.164062 54.808594 C 159.292969 53.695312 161.109375 53.710938 162.222656 54.839844 L 192.898438 86.03125 L 192.898438 125.636719 C 192.898438 127.222656 191.613281 128.507812 190.027344 128.507812 Z M 190.027344 128.507812"/><path fill="#9B744B" d="M 223.78125 128.507812 C 222.199219 128.507812 220.914062 127.222656 220.914062 125.636719 L 220.914062 81.054688 C 220.914062 79.46875 222.199219 78.183594 223.78125 78.183594 C 225.367188 78.183594 226.652344 79.46875 226.652344 81.054688 L 226.652344 125.636719 C 226.652344 127.222656 225.367188 128.507812 223.78125 128.507812 Z M 223.78125 128.507812"/><path fill="#9B744B" d="M 223.78125 83.929688 C 217.226562 83.929688 211.890625 78.589844 211.890625 72.03125 C 211.890625 65.472656 217.226562 60.136719 223.78125 60.136719 C 230.339844 60.136719 235.675781 65.472656 235.675781 72.03125 C 235.671875 78.589844 230.339844 83.929688 223.78125 83.929688 Z M 223.78125 65.878906 C 220.390625 65.878906 217.632812 68.640625 217.632812 72.03125 C 217.632812 75.425781 220.390625 78.183594 223.78125 78.183594 C 227.175781 78.183594 229.933594 75.425781 229.933594 72.03125 C 229.933594 68.640625 227.175781 65.878906 223.78125 65.878906 Z M 223.78125 65.878906"/><g clip-path="url(#b)"><path fill="#9B744B" d="M 151.34375 63.351562 C 144.785156 63.351562 139.449219 58.011719 139.449219 51.457031 C 139.449219 44.894531 144.785156 39.558594 151.34375 39.558594 C 157.898438 39.558594 163.234375 44.894531 163.234375 51.457031 C 163.234375 58.011719 157.898438 63.351562 151.34375 63.351562 Z M 151.34375 45.300781 C 147.949219 45.300781 145.191406 48.0625 145.191406 51.457031 C 145.191406 54.847656 147.949219 57.609375 151.34375 57.609375 C 154.734375 57.609375 157.492188 54.847656 157.492188 51.457031 C 157.492188 48.0625 154.734375 45.300781 151.34375 45.300781 Z M 151.34375 45.300781"/></g><path fill="#9B744B" d="M 126.765625 171.199219 L 91.21875 171.199219 C 89.632812 171.199219 88.347656 169.914062 88.347656 168.328125 C 88.347656 166.742188 89.632812 165.457031 91.21875 165.457031 L 126.765625 165.457031 C 128.351562 165.457031 129.636719 166.738281 129.636719 168.328125 C 129.632812 169.914062 128.347656 171.199219 126.765625 171.199219 Z M 126.765625 171.199219"/><path fill="#9B744B" d="M 126.765625 227.753906 L 91.21875 227.753906 C 89.632812 227.753906 88.347656 226.46875 88.347656 224.882812 C 88.347656 223.296875 89.632812 222.011719 91.21875 222.011719 L 126.765625 222.011719 C 128.351562 222.011719 129.636719 223.296875 129.636719 224.882812 C 129.632812 226.46875 128.347656 227.753906 126.765625 227.753906 Z M 126.765625 227.753906"/><path fill="#9B744B" d="M 124.714844 208.597656 L 104.960938 208.597656 C 103.375 208.597656 102.089844 207.3125 102.089844 205.726562 C 102.089844 204.140625 103.375 202.855469 104.960938 202.855469 L 124.714844 202.855469 C 126.300781 202.855469 127.585938 204.140625 127.585938 205.726562 C 127.585938 207.3125 126.300781 208.597656 124.714844 208.597656 Z M 124.714844 208.597656"/><path fill="#9B744B" d="M 58.003906 218.175781 C 57.265625 218.175781 56.523438 217.890625 55.957031 217.320312 C 54.847656 216.1875 54.863281 214.371094 55.992188 213.257812 L 87.175781 182.570312 L 126.765625 182.570312 C 128.351562 182.570312 129.636719 183.855469 129.636719 185.441406 C 129.636719 187.027344 128.351562 188.316406 126.765625 188.316406 L 89.523438 188.316406 L 60.019531 217.351562 C 59.460938 217.902344 58.730469 218.175781 58.003906 218.175781 Z M 58.003906 218.175781"/><path fill="#9B744B" d="M 126.765625 154.546875 L 82.199219 154.546875 C 80.613281 154.546875 79.328125 153.261719 79.328125 151.675781 C 79.328125 150.089844 80.613281 148.804688 82.199219 148.804688 L 126.765625 148.804688 C 128.351562 148.804688 129.636719 150.089844 129.636719 151.675781 C 129.632812 153.261719 128.347656 154.546875 126.765625 154.546875 Z M 126.765625 154.546875"/><path fill="#9B744B" d="M 73.175781 163.574219 C 66.621094 163.574219 61.285156 158.234375 61.285156 151.675781 C 61.285156 145.117188 66.621094 139.78125 73.175781 139.78125 C 79.734375 139.78125 85.070312 145.117188 85.070312 151.675781 C 85.070312 158.234375 79.734375 163.574219 73.175781 163.574219 Z M 73.175781 145.523438 C 69.785156 145.523438 67.027344 148.285156 67.027344 151.675781 C 67.027344 155.070312 69.785156 157.832031 73.175781 157.832031 C 76.570312 157.832031 79.328125 155.070312 79.328125 151.675781 C 79.328125 148.285156 76.570312 145.523438 73.175781 145.523438 Z M 73.175781 145.523438"/><g clip-path="url(#c)"><path fill="#9B744B" d="M 52.609375 236.039062 C 46.050781 236.039062 40.714844 230.703125 40.714844 224.140625 C 40.714844 217.585938 46.050781 212.246094 52.609375 212.246094 C 59.164062 212.246094 64.5 217.585938 64.5 224.140625 C 64.5 230.703125 59.164062 236.039062 52.609375 236.039062 Z M 52.609375 217.988281 C 49.214844 217.988281 46.457031 220.75 46.457031 224.140625 C 46.457031 227.535156 49.214844 230.296875 52.609375 230.296875 C 56 230.296875 58.757812 227.535156 58.757812 224.140625 C 58.757812 220.75 56 217.988281 52.609375 217.988281 Z M 52.609375 217.988281"/></g><path fill="#9B744B" d="M 168.039062 288.179688 C 166.453125 288.179688 165.167969 286.894531 165.167969 285.308594 L 165.167969 249.75 C 165.167969 248.164062 166.453125 246.878906 168.039062 246.878906 C 169.625 246.878906 170.910156 248.164062 170.910156 249.75 L 170.910156 285.308594 C 170.90625 286.894531 169.621094 288.179688 168.039062 288.179688 Z M 168.039062 288.179688"/><path fill="#9B744B" d="M 224.574219 288.179688 C 222.988281 288.179688 221.703125 286.894531 221.703125 285.308594 L 221.703125 249.75 C 221.703125 248.164062 222.988281 246.878906 224.574219 246.878906 C 226.160156 246.878906 227.445312 248.164062 227.445312 249.75 L 227.445312 285.308594 C 227.445312 286.894531 226.160156 288.179688 224.574219 288.179688 Z M 224.574219 288.179688"/><path fill="#9B744B" d="M 205.425781 274.433594 C 203.839844 274.433594 202.554688 273.148438 202.554688 271.5625 L 202.554688 251.800781 C 202.554688 250.21875 203.839844 248.929688 205.425781 248.929688 C 207.011719 248.929688 208.296875 250.214844 208.296875 251.800781 L 208.296875 271.5625 C 208.296875 273.148438 207.011719 274.433594 205.425781 274.433594 Z M 205.425781 274.433594"/><path fill="#9B744B" d="M 215 321.40625 C 214.257812 321.40625 213.515625 321.121094 212.953125 320.550781 L 182.277344 289.355469 L 182.277344 249.753906 C 182.277344 248.167969 183.558594 246.878906 185.144531 246.878906 C 186.730469 246.878906 188.015625 248.164062 188.015625 249.753906 L 188.015625 287.003906 L 217.046875 316.519531 C 218.15625 317.652344 218.144531 319.46875 217.011719 320.582031 C 216.453125 321.132812 215.726562 321.40625 215 321.40625 Z M 215 321.40625"/><path fill="#9B744B" d="M 151.394531 297.203125 C 149.808594 297.203125 148.523438 295.917969 148.523438 294.332031 L 148.523438 249.75 C 148.523438 248.164062 149.808594 246.878906 151.394531 246.878906 C 152.976562 246.878906 154.261719 248.164062 154.261719 249.75 L 154.261719 294.332031 C 154.265625 295.917969 152.980469 297.203125 151.394531 297.203125 Z M 151.394531 297.203125"/><path fill="#9B744B" d="M 151.394531 315.253906 C 144.835938 315.253906 139.5 309.917969 139.5 303.355469 C 139.5 296.800781 144.835938 291.460938 151.394531 291.460938 C 157.949219 291.460938 163.285156 296.800781 163.285156 303.355469 C 163.285156 309.917969 157.949219 315.253906 151.394531 315.253906 Z M 151.394531 297.203125 C 148 297.203125 145.242188 299.964844 145.242188 303.355469 C 145.242188 306.75 148 309.511719 151.394531 309.511719 C 154.785156 309.511719 157.542969 306.75 157.542969 303.355469 C 157.542969 299.964844 154.785156 297.203125 151.394531 297.203125 Z M 151.394531 297.203125"/><g clip-path="url(#d)"><path fill="#9B744B" d="M 223.832031 335.828125 C 217.277344 335.828125 211.941406 330.492188 211.941406 323.933594 C 211.941406 317.375 217.277344 312.039062 223.832031 312.039062 C 230.390625 312.039062 235.722656 317.375 235.722656 323.933594 C 235.722656 330.492188 230.390625 335.828125 223.832031 335.828125 Z M 223.832031 317.78125 C 220.441406 317.78125 217.683594 320.542969 217.683594 323.933594 C 217.683594 327.328125 220.441406 330.089844 223.832031 330.089844 C 227.222656 330.089844 229.984375 327.328125 229.984375 323.933594 C 229.984375 320.542969 227.226562 317.78125 223.832031 317.78125 Z M 223.832031 317.78125"/></g><path fill="#9B744B" d="M 186.183594 199.558594 C 179.480469 199.558594 174.03125 194.105469 174.03125 187.402344 C 174.03125 180.699219 179.480469 175.246094 186.183594 175.246094 C 192.882812 175.246094 198.332031 180.699219 198.332031 187.402344 C 198.332031 194.105469 192.882812 199.558594 186.183594 199.558594 Z M 186.183594 180.988281 C 182.648438 180.988281 179.773438 183.867188 179.773438 187.402344 C 179.773438 190.9375 182.648438 193.8125 186.183594 193.8125 C 189.714844 193.8125 192.589844 190.9375 192.589844 187.402344 C 192.589844 183.867188 189.714844 180.988281 186.183594 180.988281 Z M 186.183594 180.988281"/><path fill="#9B744B" d="M 187.792969 224.511719 C 186.242188 224.511719 182.445312 224.296875 180.6875 222.285156 C 180.152344 221.671875 179.199219 220.574219 178.613281 214.0625 C 177.40625 213.722656 176.226562 213.296875 175.074219 212.792969 C 170.421875 216.5 168.863281 216.765625 168.164062 216.882812 C 167.929688 216.921875 167.683594 216.945312 167.441406 216.945312 C 164.917969 216.945312 162.511719 214.769531 161.300781 213.472656 C 160.09375 212.183594 158.097656 209.667969 158.257812 207.292969 C 158.328125 206.257812 158.699219 204.8125 161.9375 200.820312 C 161.171875 199.433594 160.523438 197.984375 160.003906 196.488281 C 155.554688 195.914062 154.035156 195.199219 153.21875 194.621094 C 151.75 193.574219 150.929688 191.601562 150.789062 188.761719 C 150.738281 187.800781 150.617188 182.902344 152.992188 180.828125 C 153.753906 180.167969 154.988281 179.429688 159.8125 178.894531 C 160.324219 177.308594 160.980469 175.769531 161.773438 174.300781 C 159.113281 170.832031 158.558594 169.277344 158.390625 168.304688 C 158.109375 166.640625 158.808594 164.796875 160.46875 162.832031 C 161.867188 161.179688 164.957031 158.382812 167.695312 158.382812 C 167.792969 158.382812 167.886719 158.386719 167.980469 158.394531 C 169.03125 158.464844 170.5 158.847656 174.621094 162.214844 C 175.941406 161.605469 177.308594 161.105469 178.710938 160.714844 C 179.375 155.152344 180.253906 153.914062 180.648438 153.351562 C 182.089844 151.324219 185.078125 150.898438 187.332031 150.898438 C 188.882812 150.898438 192.679688 151.117188 194.433594 153.128906 C 194.980469 153.753906 195.960938 154.878906 196.539062 161.699219 C 197.542969 162.105469 198.519531 162.566406 199.46875 163.085938 C 204.554688 158.933594 206.273438 158.644531 206.957031 158.527344 C 207.195312 158.488281 207.4375 158.464844 207.683594 158.464844 C 210.203125 158.464844 212.613281 160.640625 213.824219 161.9375 C 215.027344 163.226562 217.027344 165.746094 216.867188 168.117188 C 216.808594 168.941406 216.695312 170.601562 211.609375 176.472656 C 211.914062 177.207031 212.203125 177.960938 212.445312 178.617188 C 215.765625 178.90625 220.109375 179.515625 221.902344 180.792969 C 223.375 181.835938 224.195312 183.808594 224.335938 186.648438 C 224.386719 187.609375 224.503906 192.507812 222.128906 194.582031 C 221.492188 195.136719 220.214844 196.253906 212.238281 196.792969 C 211.992188 197.496094 211.730469 198.191406 211.5 198.785156 C 213.65625 201.34375 216.359375 204.910156 216.730469 207.105469 C 217.015625 208.769531 216.316406 210.613281 214.652344 212.578125 C 213.257812 214.230469 210.167969 217.027344 207.425781 217.027344 C 207.332031 217.027344 207.234375 217.023438 207.144531 217.015625 C 206.332031 216.960938 204.710938 216.851562 199.019531 211.957031 C 198.230469 212.371094 197.417969 212.75 196.59375 213.085938 C 195.933594 220 194.847656 221.527344 194.472656 222.058594 C 193.035156 224.085938 190.046875 224.511719 187.792969 224.511719 Z M 185.066406 218.410156 C 185.570312 218.574219 186.5625 218.769531 187.792969 218.769531 C 188.867188 218.769531 189.554688 218.625 189.886719 218.515625 C 190.230469 217.566406 190.734375 214.699219 191.023438 210.808594 L 191.164062 208.886719 L 192.996094 208.289062 C 194.695312 207.734375 196.328125 206.96875 197.84375 206.015625 L 199.675781 204.863281 L 201.289062 206.308594 C 204.503906 209.191406 206.617188 210.707031 207.511719 211.191406 C 208.609375 210.667969 210.527344 208.839844 210.992188 207.855469 C 210.492188 206.761719 208.289062 203.789062 206.035156 201.242188 L 204.84375 199.894531 L 205.535156 198.234375 C 205.550781 198.207031 206.84375 195.09375 207.34375 193.277344 L 207.898438 191.277344 L 209.972656 191.171875 C 214.085938 190.96875 217.132812 190.546875 218.269531 190.203125 C 218.679688 189.058594 218.742188 186.402344 218.375 185.382812 C 217.246094 184.960938 213.589844 184.417969 210.195312 184.210938 L 208.269531 184.089844 L 207.648438 182.265625 C 207.332031 181.324219 206.359375 178.597656 205.679688 177.292969 L 204.761719 175.527344 L 206.09375 174.050781 C 209.015625 170.792969 210.550781 168.652344 211.039062 167.75 C 210.519531 166.652344 208.691406 164.734375 207.710938 164.269531 C 206.933594 164.636719 204.828125 166.023438 201.613281 168.777344 L 199.976562 170.175781 L 198.175781 169 C 196.542969 167.929688 194.78125 167.089844 192.9375 166.492188 L 191.078125 165.894531 L 190.953125 163.945312 C 190.695312 159.953125 190.304688 157.835938 190.058594 157 C 189.554688 156.835938 188.5625 156.640625 187.332031 156.640625 C 186.261719 156.640625 185.574219 156.785156 185.242188 156.890625 C 185.007812 157.5625 184.558594 159.511719 184.210938 163.296875 L 184.011719 165.433594 L 181.90625 165.847656 C 179.699219 166.285156 177.582031 167.054688 175.609375 168.140625 L 173.867188 169.097656 L 172.359375 167.804688 C 169.554688 165.398438 168.171875 164.523438 167.609375 164.222656 C 166.515625 164.742188 164.613281 166.558594 164.144531 167.539062 C 164.371094 168.007812 165.128906 169.367188 167.46875 172.242188 L 168.777344 173.851562 L 167.660156 175.601562 C 166.355469 177.648438 165.402344 179.882812 164.835938 182.234375 L 164.351562 184.253906 L 162.285156 184.425781 C 158.925781 184.703125 157.441406 185.039062 156.859375 185.214844 C 156.453125 186.359375 156.390625 188.996094 156.753906 190.019531 C 157.367188 190.234375 159.121094 190.652344 162.492188 190.992188 L 164.460938 191.191406 L 164.972656 193.105469 C 165.582031 195.378906 166.550781 197.53125 167.855469 199.5 L 169.050781 201.308594 L 167.640625 202.953125 C 165.261719 205.734375 164.394531 207.105469 164.089844 207.664062 C 164.613281 208.761719 166.433594 210.671875 167.414062 211.136719 C 168.058594 210.828125 169.808594 209.738281 172.832031 207.210938 L 174.308594 205.976562 L 176.007812 206.867188 C 177.863281 207.84375 179.839844 208.542969 181.878906 208.945312 L 184.039062 209.375 L 184.183594 211.574219 C 184.4375 215.5 184.820312 217.582031 185.066406 218.410156 Z M 185.066406 218.410156"/></svg>