<svg xmlns="http://www.w3.org/2000/svg" width="375" viewBox="0 0 375 375" height="375" version="1.0"><defs><clipPath id="a"><path d="M 41.214844 41.214844 L 333.714844 41.214844 L 333.714844 333.714844 L 41.214844 333.714844 Z M 41.214844 41.214844"/></clipPath></defs><path fill="#9B744B" d="M 154.101562 201.175781 L 153.1875 201.175781 C 138.105469 201.175781 125.765625 213.515625 125.765625 228.597656 L 125.765625 251.449219 C 125.765625 253.960938 127.820312 256.019531 130.335938 256.019531 C 132.847656 256.019531 134.90625 253.960938 134.90625 251.449219 L 134.90625 228.597656 C 134.90625 218.542969 143.132812 210.316406 153.1875 210.316406 L 163.242188 210.316406 C 163.011719 210.085938 162.785156 209.859375 162.554688 209.628906 Z M 154.101562 201.175781"/><path fill="#9B744B" d="M 221.742188 201.175781 L 220.828125 201.175781 L 212.371094 209.628906 C 212.144531 209.859375 211.914062 210.085938 211.6875 210.316406 L 221.742188 210.316406 C 231.796875 210.316406 240.023438 218.542969 240.023438 228.597656 L 240.023438 251.449219 C 240.023438 253.960938 242.078125 256.019531 244.59375 256.019531 C 247.105469 256.019531 249.164062 253.960938 249.164062 251.449219 L 249.164062 228.597656 C 249.164062 213.515625 236.824219 201.175781 221.742188 201.175781 Z M 221.742188 201.175781"/><path fill="#9B744B" d="M 218.3125 190.433594 C 221.96875 185.179688 224.027344 179.238281 224.027344 172.839844 L 224.027344 153.644531 C 224.027344 136.960938 210.542969 123.480469 194.089844 123.480469 L 180.835938 123.480469 C 164.382812 123.480469 150.902344 136.960938 150.902344 153.644531 L 150.902344 172.839844 C 150.902344 179.238281 152.957031 185.179688 156.613281 190.433594 C 156.84375 190.890625 157.300781 191.121094 157.527344 191.578125 L 169.183594 203.230469 C 173.753906 207.800781 179.695312 210.316406 186.09375 210.316406 L 189.0625 210.316406 C 195.460938 210.316406 201.402344 207.800781 205.972656 203.230469 L 217.628906 191.578125 C 217.855469 191.347656 218.085938 190.890625 218.3125 190.433594 Z M 214.886719 172.839844 C 214.886719 177.179688 213.515625 181.523438 211 185.179688 L 199.347656 196.832031 C 196.605469 199.574219 192.949219 201.175781 189.0625 201.175781 L 186.09375 201.175781 C 182.207031 201.175781 178.550781 199.574219 175.808594 196.832031 L 163.925781 185.179688 C 161.414062 181.523438 160.042969 177.179688 160.042969 172.839844 L 160.042969 153.644531 C 160.042969 141.988281 169.410156 132.621094 180.835938 132.621094 L 194.089844 132.621094 C 205.515625 132.621094 214.886719 141.988281 214.886719 153.644531 Z M 214.886719 172.839844"/><g clip-path="url(#a)"><path fill="#9B744B" d="M 298.066406 150.902344 C 286.410156 115.9375 258.988281 88.515625 224.027344 76.863281 C 223.570312 57.210938 207.34375 41.214844 187.464844 41.214844 C 167.582031 41.214844 151.359375 57.210938 150.902344 76.863281 C 115.9375 88.515625 88.515625 115.9375 76.863281 150.902344 C 57.210938 151.359375 41.214844 167.582031 41.214844 187.464844 C 41.214844 207.34375 57.210938 223.570312 76.863281 224.027344 C 88.515625 258.988281 115.9375 286.640625 150.902344 298.066406 C 151.359375 317.71875 167.582031 333.714844 187.464844 333.714844 C 207.34375 333.714844 223.570312 317.71875 224.027344 298.066406 C 258.988281 286.410156 286.640625 258.988281 298.066406 224.027344 C 317.71875 223.570312 333.714844 207.34375 333.714844 187.464844 C 333.714844 167.582031 317.71875 151.359375 298.066406 150.902344 Z M 187.464844 50.355469 C 202.546875 50.355469 214.886719 62.695312 214.886719 77.777344 C 214.886719 92.859375 202.546875 105.199219 187.464844 105.199219 C 172.382812 105.199219 160.042969 92.859375 160.042969 77.777344 C 160.042969 62.695312 172.382812 50.355469 187.464844 50.355469 Z M 50.355469 187.464844 C 50.355469 172.382812 62.695312 160.042969 77.777344 160.042969 C 92.859375 160.042969 105.199219 172.382812 105.199219 187.464844 C 105.199219 202.546875 92.859375 214.886719 77.777344 214.886719 C 62.695312 214.886719 50.355469 202.546875 50.355469 187.464844 Z M 187.464844 324.574219 C 172.382812 324.574219 160.042969 312.234375 160.042969 297.152344 C 160.042969 282.070312 172.382812 269.730469 187.464844 269.730469 C 202.546875 269.730469 214.886719 282.070312 214.886719 297.152344 C 214.886719 312.234375 202.546875 324.574219 187.464844 324.574219 Z M 223.113281 288.695312 C 219.226562 272.699219 204.832031 260.589844 187.464844 260.589844 C 170.097656 260.589844 155.699219 272.699219 151.816406 288.695312 C 121.195312 277.957031 96.972656 253.734375 86.230469 223.113281 C 102.226562 219.226562 114.339844 204.832031 114.339844 187.464844 C 114.339844 170.097656 102.226562 155.699219 86.230469 151.816406 C 96.972656 121.195312 121.195312 96.972656 151.816406 86.230469 C 155.699219 102.226562 170.097656 114.339844 187.464844 114.339844 C 204.832031 114.339844 219.226562 102.226562 223.113281 86.230469 C 253.734375 96.972656 277.957031 121.421875 288.925781 152.042969 C 272.699219 155.699219 260.589844 170.097656 260.589844 187.464844 C 260.589844 204.832031 272.699219 219.226562 288.695312 223.113281 C 277.957031 253.734375 253.734375 277.957031 223.113281 288.695312 Z M 297.152344 214.886719 C 282.070312 214.886719 269.730469 202.546875 269.730469 187.464844 C 269.730469 172.382812 282.070312 160.042969 297.152344 160.042969 C 312.234375 160.042969 324.574219 172.382812 324.574219 187.464844 C 324.574219 202.546875 312.234375 214.886719 297.152344 214.886719 Z M 297.152344 214.886719"/></g><path fill="#9B744B" d="M 187.464844 93.773438 C 196.375 93.773438 203.460938 86.6875 203.460938 77.777344 C 203.460938 68.863281 196.375 61.78125 187.464844 61.78125 C 178.550781 61.78125 171.46875 68.863281 171.46875 77.777344 C 171.46875 86.6875 178.550781 93.773438 187.464844 93.773438 Z M 187.464844 70.921875 C 191.347656 70.921875 194.320312 73.890625 194.320312 77.777344 C 194.320312 81.660156 191.347656 84.632812 187.464844 84.632812 C 183.578125 84.632812 180.609375 81.660156 180.609375 77.777344 C 180.609375 73.890625 183.578125 70.921875 187.464844 70.921875 Z M 187.464844 70.921875"/><path fill="#9B744B" d="M 199.804688 284.8125 C 197.976562 282.984375 195.234375 282.984375 193.40625 284.8125 L 187.464844 290.753906 L 181.523438 284.8125 C 179.695312 282.984375 176.953125 282.984375 175.125 284.8125 C 173.296875 286.640625 173.296875 289.382812 175.125 291.210938 L 181.066406 297.152344 L 175.125 303.09375 C 173.296875 304.921875 173.296875 307.664062 175.125 309.492188 C 176.039062 310.40625 177.179688 310.863281 178.324219 310.863281 C 179.464844 310.863281 180.609375 310.40625 181.523438 309.492188 L 187.464844 303.550781 L 193.40625 309.492188 C 194.320312 310.40625 195.460938 310.863281 196.605469 310.863281 C 197.746094 310.863281 198.890625 310.40625 199.804688 309.492188 C 201.632812 307.664062 201.632812 304.921875 199.804688 303.09375 L 193.863281 297.152344 L 199.804688 291.210938 C 201.632812 289.382812 201.632812 286.640625 199.804688 284.8125 Z M 199.804688 284.8125"/><path fill="#9B744B" d="M 306.292969 173.753906 L 288.011719 173.753906 C 285.496094 173.753906 283.441406 175.808594 283.441406 178.324219 L 283.441406 196.605469 C 283.441406 199.117188 285.496094 201.175781 288.011719 201.175781 L 306.292969 201.175781 C 308.804688 201.175781 310.863281 199.117188 310.863281 196.605469 L 310.863281 178.324219 C 310.863281 175.808594 308.804688 173.753906 306.292969 173.753906 Z M 301.722656 192.035156 L 292.582031 192.035156 L 292.582031 182.894531 L 301.722656 182.894531 Z M 301.722656 192.035156"/><path fill="#9B744B" d="M 80.976562 171.238281 C 79.148438 169.410156 76.40625 169.410156 74.578125 171.238281 L 61.550781 184.265625 C 59.722656 186.09375 59.722656 188.835938 61.550781 190.664062 L 74.578125 203.6875 C 75.492188 204.601562 76.632812 205.058594 77.777344 205.058594 C 78.917969 205.058594 80.0625 204.601562 80.976562 203.6875 L 94 190.664062 C 95.828125 188.835938 95.828125 186.09375 94 184.265625 Z M 77.777344 193.863281 L 71.378906 187.464844 L 77.777344 181.066406 L 84.175781 187.464844 Z M 77.777344 193.863281"/></svg>