<svg xmlns="http://www.w3.org/2000/svg" width="375" viewBox="0 0 375 375" height="375" version="1.0"><path fill="#9B744B" d="M 187.5 45 C 108.871094 45 45 108.871094 45 187.5 C 45 266.128906 108.871094 330 187.5 330 C 266.128906 330 330 266.128906 330 187.5 C 330 108.871094 266.128906 45 187.5 45 Z M 187.5 57.390625 C 259.429688 57.390625 317.609375 115.570312 317.609375 187.5 C 317.609375 259.429688 259.429688 317.609375 187.5 317.609375 C 115.570312 317.609375 57.390625 259.429688 57.390625 187.5 C 57.390625 115.570312 115.570312 57.390625 187.5 57.390625 Z M 187.609375 119.347656 C 186.695312 119.332031 185.820312 119.507812 184.984375 119.878906 L 73.460938 169.445312 C 72.960938 169.667969 72.5 169.949219 72.074219 170.292969 C 71.648438 170.636719 71.277344 171.03125 70.957031 171.472656 C 70.632812 171.914062 70.375 172.390625 70.183594 172.902344 C 69.988281 173.414062 69.863281 173.941406 69.804688 174.484375 C 69.75 175.027344 69.769531 175.570312 69.855469 176.109375 C 69.945312 176.648438 70.101562 177.167969 70.324219 177.664062 C 70.550781 178.164062 70.835938 178.621094 71.183594 179.046875 C 71.53125 179.46875 71.925781 179.835938 72.371094 180.15625 L 88.371094 191.578125 L 88.371094 226.40625 C 84.683594 228.558594 82.175781 232.511719 82.175781 237.066406 C 82.175781 243.878906 94.566406 261.847656 94.566406 261.847656 C 94.566406 261.847656 106.957031 243.878906 106.957031 237.066406 C 106.957031 232.511719 104.445312 228.558594 100.761719 226.40625 L 100.761719 200.4375 L 113.152344 209.28125 L 113.152344 218.476562 C 113.152344 221.636719 114.921875 224.105469 116.613281 225.605469 C 118.304688 227.105469 120.152344 228.089844 122.253906 228.992188 C 126.453125 230.800781 131.761719 232.167969 138.199219 233.339844 C 151.078125 235.679688 168.375 237.066406 187.5 237.066406 C 206.625 237.066406 223.921875 235.679688 236.800781 233.339844 C 243.238281 232.167969 248.546875 230.800781 252.746094 228.992188 C 254.847656 228.089844 256.695312 227.105469 258.386719 225.605469 C 260.078125 224.105469 261.847656 221.636719 261.847656 218.476562 L 261.847656 209.28125 L 302.628906 180.15625 C 303.074219 179.835938 303.46875 179.46875 303.816406 179.046875 C 304.164062 178.621094 304.449219 178.164062 304.675781 177.664062 C 304.898438 177.167969 305.054688 176.648438 305.144531 176.109375 C 305.230469 175.570312 305.25 175.027344 305.195312 174.484375 C 305.136719 173.941406 305.011719 173.414062 304.816406 172.902344 C 304.625 172.390625 304.367188 171.914062 304.042969 171.472656 C 303.722656 171.03125 303.351562 170.636719 302.925781 170.292969 C 302.5 169.949219 302.039062 169.667969 301.539062 169.445312 L 190.015625 119.878906 C 189.25 119.539062 188.449219 119.363281 187.609375 119.347656 Z M 187.5 132.320312 L 286.59375 176.367188 L 261.847656 194.046875 L 261.847656 187.5 C 261.847656 184.796875 260.539062 182.371094 259.039062 180.773438 C 257.542969 179.171875 255.828125 178.097656 253.910156 177.140625 C 250.074219 175.230469 245.269531 173.851562 239.160156 172.664062 C 226.941406 170.292969 209.628906 168.914062 187.5 168.914062 C 165.371094 168.914062 148.058594 170.292969 135.839844 172.664062 C 129.730469 173.851562 124.925781 175.230469 121.089844 177.140625 C 119.171875 178.097656 117.457031 179.171875 115.960938 180.773438 C 114.460938 182.371094 113.152344 184.796875 113.152344 187.5 L 113.152344 194.046875 L 88.40625 176.367188 Z M 187.5 181.304688 C 209.101562 181.304688 225.871094 182.707031 236.800781 184.824219 C 242.261719 185.886719 246.28125 187.1875 248.390625 188.238281 C 249.09375 188.589844 249.214844 188.722656 249.457031 188.902344 L 249.457031 206.847656 C 245.832031 205.605469 241.753906 204.519531 236.800781 203.617188 C 223.921875 201.277344 206.625 199.890625 187.5 199.890625 C 168.375 199.890625 151.078125 201.277344 138.199219 203.617188 C 133.246094 204.519531 129.167969 205.605469 125.542969 206.847656 L 125.542969 188.902344 C 125.785156 188.722656 125.90625 188.589844 126.609375 188.238281 C 128.71875 187.1875 132.738281 185.886719 138.199219 184.824219 C 149.128906 182.707031 165.898438 181.304688 187.5 181.304688 Z M 187.5 212.28125 C 206.015625 212.28125 222.796875 213.671875 234.585938 215.816406 C 239.027344 216.625 241.847656 217.566406 244.578125 218.476562 C 241.847656 219.386719 239.027344 220.332031 234.585938 221.140625 C 222.796875 223.285156 206.015625 224.675781 187.5 224.675781 C 168.984375 224.675781 152.203125 223.285156 140.414062 221.140625 C 135.972656 220.332031 133.152344 219.386719 130.421875 218.476562 C 133.152344 217.566406 135.972656 216.625 140.414062 215.816406 C 152.203125 213.671875 168.984375 212.28125 187.5 212.28125 Z M 187.5 212.28125"/></svg>