<svg xmlns="http://www.w3.org/2000/svg" width="375" viewBox="0 0 375 375" height="375" version="1.0"><defs><clipPath id="a"><path d="M 80 65.90625 L 258 65.90625 L 258 243 L 80 243 Z M 80 65.90625"/></clipPath><clipPath id="b"><path d="M 118 103 L 295 103 L 295 308.90625 L 118 308.90625 Z M 118 103"/></clipPath><clipPath id="c"><path d="M 285 80 L 332.878906 80 L 332.878906 271 L 285 271 Z M 285 80"/></clipPath></defs><g clip-path="url(#a)"><path fill="#9B744B" d="M 229.847656 110.191406 C 224.730469 98.78125 218.246094 88.105469 210.488281 78.28125 C 223.101562 81.285156 234.96875 86.796875 245.480469 94.558594 Z M 109.578125 230.472656 C 98.292969 215.152344 91.726562 196.734375 90.773438 177.6875 L 132.519531 177.6875 C 132.804688 186.652344 133.878906 195.578125 135.714844 204.328125 Z M 165.175781 78.28125 C 155.074219 91.070312 147.167969 105.242188 141.601562 120.609375 C 131.121094 118.96875 120.691406 116.753906 110.460938 114.007812 C 124.144531 95.992188 143.410156 83.457031 165.175781 78.28125 Z M 217.28125 122.757812 C 209.148438 123.566406 200.90625 124.046875 192.695312 124.183594 L 192.695312 75.746094 C 193.710938 75.796875 194.722656 75.871094 195.734375 75.949219 C 207.070312 88.269531 216.050781 102.25 222.457031 117.582031 Z M 192.695312 133.90625 C 197.355469 133.832031 202.023438 133.648438 206.679688 133.363281 L 192.695312 147.347656 Z M 162.359375 177.6875 L 144.042969 196.003906 C 143.054688 189.953125 142.457031 183.828125 142.246094 177.6875 Z M 179.945312 75.949219 C 180.949219 75.867188 181.960938 75.796875 182.976562 75.746094 L 182.976562 124.183594 C 172.453125 124.011719 161.902344 123.277344 151.46875 121.992188 C 157.921875 104.941406 167.480469 89.484375 179.945312 75.949219 Z M 90.777344 167.96875 C 91.578125 151.832031 96.320312 136.261719 104.671875 122.496094 C 115.777344 125.613281 127.132812 128.125 138.542969 129.972656 C 134.941406 142.328125 132.925781 155.066406 132.519531 167.96875 Z M 172.078125 167.96875 L 142.242188 167.96875 C 142.660156 155.53125 144.679688 143.261719 148.269531 131.378906 C 159.746094 132.871094 171.382812 133.71875 182.976562 133.90625 L 182.976562 157.066406 Z M 257.648438 93.882812 C 257.585938 92.515625 256.949219 91.238281 255.890625 90.367188 C 239.484375 76.808594 219.640625 68.53125 198.511719 66.433594 C 195.015625 66.085938 191.464844 65.914062 187.914062 65.914062 C 187.886719 65.914062 187.863281 65.90625 187.835938 65.90625 C 187.808594 65.90625 187.785156 65.914062 187.757812 65.914062 C 184.207031 65.914062 180.65625 66.085938 177.164062 66.433594 C 145.003906 69.625 116.328125 87 98.484375 114.101562 C 98.472656 114.121094 98.460938 114.140625 98.449219 114.15625 C 86.984375 131.582031 80.925781 151.867188 80.925781 172.828125 C 80.925781 197.632812 89.613281 221.804688 105.382812 240.890625 C 106.253906 241.945312 107.53125 242.582031 108.898438 242.648438 C 108.976562 242.652344 109.050781 242.65625 109.128906 242.65625 C 110.414062 242.65625 111.652344 242.144531 112.5625 241.230469 L 256.234375 97.550781 C 257.203125 96.582031 257.714844 95.25 257.648438 93.882812"/></g><g clip-path="url(#b)"><path fill="#9B744B" d="M 243.558594 252.472656 C 243.273438 252.671875 243.011719 252.898438 242.773438 253.15625 L 207.273438 291.617188 L 207.273438 273.847656 C 207.273438 272.4375 206.660156 271.101562 205.597656 270.175781 C 204.710938 269.40625 203.578125 268.988281 202.414062 268.988281 C 202.1875 268.988281 201.957031 269.003906 201.726562 269.035156 C 200.253906 269.246094 198.886719 269.414062 197.546875 269.546875 C 191.144531 270.1875 184.527344 270.1875 178.121094 269.546875 C 160.699219 267.816406 144.234375 261.464844 130.191406 251.09375 L 266.097656 115.179688 C 267.144531 116.601562 268.148438 118.039062 269.105469 119.5 C 279.523438 135.332031 285.027344 153.773438 285.027344 172.828125 C 285.027344 204.492188 269.527344 234.265625 243.558594 252.472656 Z M 277.226562 114.160156 C 275.105469 110.933594 272.773438 107.773438 270.289062 104.765625 C 269.417969 103.710938 268.140625 103.070312 266.773438 103.007812 C 265.40625 102.941406 264.074219 103.457031 263.109375 104.425781 L 119.4375 248.105469 C 118.46875 249.074219 117.957031 250.40625 118.023438 251.773438 C 118.085938 253.136719 118.722656 254.414062 119.78125 255.289062 C 136.1875 268.847656 156.03125 277.121094 177.160156 279.21875 C 183.878906 279.886719 190.8125 279.917969 197.554688 279.3125 L 197.554688 304.046875 C 197.554688 306.046875 198.78125 307.84375 200.644531 308.574219 C 201.222656 308.796875 201.820312 308.90625 202.414062 308.90625 C 203.742188 308.90625 205.046875 308.363281 205.984375 307.34375 L 249.566406 260.125 C 277.867188 240.074219 294.746094 207.480469 294.746094 172.828125 C 294.746094 151.867188 288.6875 131.582031 277.226562 114.160156"/></g><path fill="#9B744B" d="M 187.835938 211.707031 C 182.46875 211.707031 178.117188 216.058594 178.117188 221.425781 C 178.117188 226.796875 182.46875 231.148438 187.835938 231.148438 C 193.203125 231.148438 197.554688 226.796875 197.554688 221.425781 C 197.554688 216.058594 193.203125 211.707031 187.835938 211.707031"/><path fill="#9B744B" d="M 216.992188 211.707031 C 211.625 211.707031 207.273438 216.058594 207.273438 221.425781 C 207.273438 226.796875 211.625 231.148438 216.992188 231.148438 C 222.359375 231.148438 226.710938 226.796875 226.710938 221.425781 C 226.710938 216.058594 222.359375 211.707031 216.992188 211.707031"/><path fill="#9B744B" d="M 246.152344 211.707031 C 240.785156 211.707031 236.433594 216.058594 236.433594 221.425781 C 236.433594 226.796875 240.785156 231.148438 246.152344 231.148438 C 251.519531 231.148438 255.871094 226.796875 255.871094 221.425781 C 255.871094 216.058594 251.519531 211.707031 246.152344 211.707031"/><path fill="#9B744B" d="M 80.917969 238.476562 C 78.253906 238.144531 75.828125 240.03125 75.496094 242.695312 L 75.085938 245.976562 C 60 224.714844 51.765625 199.039062 51.765625 172.828125 C 51.765625 138.847656 65.0625 106.964844 89.203125 83.050781 C 91.109375 81.160156 91.125 78.082031 89.238281 76.175781 C 87.347656 74.269531 84.269531 74.257812 82.363281 76.144531 C 56.367188 101.898438 42.046875 136.234375 42.046875 172.828125 C 42.046875 200.90625 50.824219 228.417969 66.910156 251.25 L 62.804688 250.640625 C 60.148438 250.25 57.679688 252.082031 57.285156 254.734375 C 56.890625 257.390625 58.726562 259.863281 61.382812 260.253906 L 77.78125 262.683594 C 78.019531 262.722656 78.257812 262.738281 78.496094 262.738281 C 79.550781 262.738281 80.585938 262.394531 81.433594 261.746094 C 82.476562 260.957031 83.15625 259.777344 83.316406 258.480469 L 85.140625 243.898438 C 85.472656 241.238281 83.582031 238.808594 80.917969 238.476562"/><g clip-path="url(#c)"><path fill="#9B744B" d="M 308.4375 90.207031 C 311.121094 90.207031 313.296875 88.03125 313.296875 85.347656 C 313.296875 82.664062 311.121094 80.488281 308.4375 80.488281 L 293.855469 80.488281 C 291.171875 80.488281 288.996094 82.664062 288.996094 85.347656 L 288.996094 99.925781 C 288.996094 102.613281 291.171875 104.789062 293.855469 104.789062 C 296.539062 104.789062 298.71875 102.613281 298.71875 99.925781 L 298.71875 98.324219 C 314.421875 119.84375 323.015625 146.058594 323.015625 172.828125 C 323.015625 206.351562 310.023438 237.933594 286.433594 261.746094 C 284.546875 263.652344 284.558594 266.730469 286.46875 268.621094 C 287.414062 269.558594 288.652344 270.027344 289.886719 270.027344 C 291.136719 270.027344 292.390625 269.546875 293.339844 268.585938 C 318.742188 242.9375 332.734375 208.929688 332.734375 172.828125 C 332.734375 143.003906 322.828125 113.816406 304.78125 90.207031 L 308.4375 90.207031"/></g></svg>