<svg xmlns="http://www.w3.org/2000/svg" width="375" viewBox="0 0 375 375" height="375" version="1.0"><defs><clipPath id="a"><path d="M 140 215 L 235 215 L 235 329.632812 L 140 329.632812 Z M 140 215"/></clipPath><clipPath id="b"><path d="M 206 286 L 217 286 L 217 329.632812 L 206 329.632812 Z M 206 286"/></clipPath><clipPath id="c"><path d="M 159 286 L 169 286 L 169 329.632812 L 159 329.632812 Z M 159 286"/></clipPath><clipPath id="d"><path d="M 45 45.382812 L 330 45.382812 L 330 312 L 45 312 Z M 45 45.382812"/></clipPath></defs><g clip-path="url(#a)"><path fill="#9B744B" d="M 213.632812 241.988281 C 213.632812 241.429688 213.617188 240.875 213.582031 240.316406 C 213.546875 239.761719 213.492188 239.207031 213.421875 238.65625 C 213.351562 238.101562 213.265625 237.554688 213.160156 237.007812 C 213.054688 236.460938 212.929688 235.917969 212.789062 235.378906 C 212.648438 234.839844 212.492188 234.304688 212.316406 233.773438 C 212.140625 233.246094 211.949219 232.722656 211.742188 232.207031 C 211.53125 231.691406 211.308594 231.179688 211.066406 230.679688 C 210.824219 230.175781 210.566406 229.683594 210.296875 229.195312 C 210.023438 228.710938 209.734375 228.234375 209.429688 227.765625 C 209.128906 227.300781 208.808594 226.84375 208.476562 226.394531 C 208.144531 225.949219 207.796875 225.511719 207.4375 225.089844 C 207.074219 224.664062 206.703125 224.25 206.316406 223.851562 C 205.925781 223.449219 205.527344 223.0625 205.117188 222.6875 C 204.703125 222.3125 204.28125 221.949219 203.84375 221.601562 C 203.410156 221.253906 202.964844 220.921875 202.507812 220.601562 C 202.050781 220.28125 201.582031 219.976562 201.109375 219.6875 C 200.632812 219.398438 200.148438 219.125 199.652344 218.867188 C 199.160156 218.609375 198.65625 218.367188 198.148438 218.140625 C 197.640625 217.914062 197.121094 217.703125 196.601562 217.511719 C 196.078125 217.320312 195.550781 217.144531 195.015625 216.984375 C 194.480469 216.824219 193.941406 216.683594 193.398438 216.558594 C 192.855469 216.433594 192.308594 216.324219 191.757812 216.238281 C 191.210938 216.148438 190.65625 216.074219 190.101562 216.019531 C 189.546875 215.964844 188.992188 215.929688 188.433594 215.910156 C 187.878906 215.894531 187.320312 215.890625 186.765625 215.910156 C 186.207031 215.925781 185.652344 215.960938 185.097656 216.015625 C 184.542969 216.066406 183.988281 216.136719 183.4375 216.226562 C 182.890625 216.3125 182.34375 216.421875 181.796875 216.542969 C 181.253906 216.667969 180.714844 216.808594 180.183594 216.964844 C 179.648438 217.121094 179.117188 217.296875 178.59375 217.488281 C 178.070312 217.679688 177.554688 217.890625 177.046875 218.113281 C 176.535156 218.339844 176.035156 218.578125 175.539062 218.835938 C 175.042969 219.09375 174.558594 219.367188 174.082031 219.65625 C 173.605469 219.941406 173.136719 220.246094 172.679688 220.5625 C 172.222656 220.882812 171.777344 221.214844 171.339844 221.5625 C 170.902344 221.910156 170.480469 222.269531 170.066406 222.644531 C 169.652344 223.015625 169.253906 223.402344 168.863281 223.804688 C 168.476562 224.203125 168.101562 224.613281 167.738281 225.039062 C 167.378906 225.460938 167.03125 225.898438 166.695312 226.34375 C 166.363281 226.789062 166.042969 227.246094 165.738281 227.710938 C 165.433594 228.179688 165.144531 228.652344 164.871094 229.140625 C 164.597656 229.625 164.339844 230.117188 164.097656 230.621094 C 163.855469 231.121094 163.628906 231.628906 163.417969 232.144531 C 163.207031 232.660156 163.015625 233.183594 162.839844 233.710938 C 162.664062 234.242188 162.503906 234.773438 162.363281 235.3125 C 162.21875 235.851562 162.09375 236.394531 161.988281 236.941406 C 161.878906 237.488281 161.789062 238.039062 161.71875 238.589844 C 161.648438 239.140625 161.59375 239.695312 161.554688 240.253906 C 161.519531 240.808594 161.5 241.363281 161.5 241.921875 C 161.5 242.480469 161.515625 243.035156 161.550781 243.589844 C 161.585938 244.148438 161.640625 244.703125 161.710938 245.253906 C 161.78125 245.808594 161.871094 246.355469 161.976562 246.902344 C 162.082031 247.449219 162.203125 247.992188 162.34375 248.53125 C 162.484375 249.070312 162.644531 249.605469 162.820312 250.132812 C 162.992188 250.664062 163.183594 251.1875 163.394531 251.703125 C 163.601562 252.21875 163.828125 252.726562 164.070312 253.230469 C 164.308594 253.734375 164.566406 254.226562 164.839844 254.710938 C 165.113281 255.199219 165.402344 255.675781 165.703125 256.140625 C 166.007812 256.609375 166.324219 257.066406 166.660156 257.511719 C 166.992188 257.960938 167.339844 258.394531 167.699219 258.820312 C 168.058594 259.246094 168.433594 259.65625 168.820312 260.058594 C 169.207031 260.457031 169.609375 260.847656 170.019531 261.222656 C 170.433594 261.597656 170.855469 261.957031 171.289062 262.304688 C 171.726562 262.652344 172.171875 262.988281 172.628906 263.304688 L 159.132812 263.304688 C 158.511719 263.304688 157.890625 263.335938 157.273438 263.398438 C 156.65625 263.457031 156.042969 263.550781 155.433594 263.671875 C 154.824219 263.792969 154.222656 263.941406 153.628906 264.121094 C 153.035156 264.300781 152.449219 264.511719 151.875 264.75 C 151.304688 264.984375 150.742188 265.25 150.195312 265.542969 C 149.648438 265.835938 149.117188 266.15625 148.597656 266.5 C 148.082031 266.84375 147.585938 267.214844 147.105469 267.609375 C 146.625 268 146.164062 268.417969 145.726562 268.855469 C 145.289062 269.296875 144.871094 269.753906 144.476562 270.234375 C 144.082031 270.714844 143.714844 271.210938 143.367188 271.726562 C 143.023438 272.246094 142.707031 272.777344 142.414062 273.324219 C 142.121094 273.871094 141.855469 274.429688 141.617188 275.003906 C 141.378906 275.578125 141.171875 276.160156 140.992188 276.753906 C 140.808594 277.347656 140.660156 277.949219 140.539062 278.558594 C 140.417969 279.167969 140.328125 279.78125 140.265625 280.398438 C 140.203125 281.015625 140.175781 281.636719 140.175781 282.257812 L 140.175781 329.632812 L 149.652344 329.632812 L 149.652344 282.257812 C 149.652344 281.632812 149.714844 281.019531 149.835938 280.40625 C 149.957031 279.796875 150.136719 279.207031 150.375 278.628906 C 150.613281 278.054688 150.902344 277.507812 151.25 276.992188 C 151.597656 276.476562 151.988281 275.996094 152.429688 275.554688 C 152.867188 275.117188 153.347656 274.722656 153.863281 274.378906 C 154.382812 274.03125 154.929688 273.742188 155.503906 273.503906 C 156.078125 273.265625 156.671875 273.085938 157.28125 272.964844 C 157.890625 272.84375 158.507812 272.78125 159.132812 272.78125 L 216.003906 272.78125 C 216.625 272.78125 217.242188 272.84375 217.851562 272.964844 C 218.460938 273.085938 219.054688 273.265625 219.628906 273.503906 C 220.203125 273.742188 220.75 274.03125 221.269531 274.378906 C 221.785156 274.722656 222.265625 275.117188 222.703125 275.554688 C 223.144531 275.996094 223.539062 276.476562 223.882812 276.992188 C 224.230469 277.507812 224.519531 278.054688 224.757812 278.628906 C 224.996094 279.207031 225.175781 279.796875 225.296875 280.40625 C 225.421875 281.019531 225.480469 281.632812 225.480469 282.257812 L 225.480469 329.632812 L 234.960938 329.632812 L 234.960938 282.257812 C 234.960938 281.636719 234.929688 281.015625 234.867188 280.398438 C 234.808594 279.78125 234.714844 279.167969 234.59375 278.558594 C 234.472656 277.949219 234.324219 277.347656 234.144531 276.753906 C 233.964844 276.160156 233.753906 275.578125 233.515625 275.003906 C 233.277344 274.429688 233.015625 273.871094 232.722656 273.324219 C 232.429688 272.777344 232.109375 272.246094 231.765625 271.726562 C 231.417969 271.210938 231.050781 270.714844 230.65625 270.234375 C 230.261719 269.753906 229.847656 269.296875 229.40625 268.855469 C 228.96875 268.417969 228.507812 268 228.027344 267.609375 C 227.546875 267.214844 227.050781 266.84375 226.535156 266.5 C 226.019531 266.15625 225.484375 265.835938 224.9375 265.542969 C 224.390625 265.25 223.832031 264.984375 223.257812 264.75 C 222.683594 264.511719 222.097656 264.300781 221.503906 264.121094 C 220.910156 263.941406 220.308594 263.792969 219.699219 263.671875 C 219.09375 263.550781 218.476562 263.457031 217.859375 263.398438 C 217.242188 263.335938 216.625 263.304688 216.003906 263.304688 L 202.503906 263.304688 C 204.222656 262.109375 205.769531 260.722656 207.152344 259.152344 C 208.535156 257.578125 209.710938 255.863281 210.679688 254.007812 C 211.648438 252.152344 212.382812 250.207031 212.882812 248.175781 C 213.382812 246.144531 213.632812 244.082031 213.632812 241.988281 Z M 187.566406 258.570312 C 187.023438 258.570312 186.480469 258.542969 185.941406 258.488281 C 185.398438 258.4375 184.863281 258.355469 184.332031 258.25 C 183.796875 258.144531 183.273438 258.011719 182.75 257.855469 C 182.230469 257.695312 181.722656 257.515625 181.21875 257.304688 C 180.71875 257.097656 180.226562 256.867188 179.746094 256.609375 C 179.269531 256.355469 178.804688 256.074219 178.351562 255.773438 C 177.898438 255.472656 177.464844 255.148438 177.042969 254.804688 C 176.625 254.460938 176.222656 254.097656 175.835938 253.710938 C 175.453125 253.328125 175.089844 252.925781 174.746094 252.507812 C 174.398438 252.085938 174.078125 251.652344 173.773438 251.199219 C 173.472656 250.75 173.195312 250.28125 172.9375 249.804688 C 172.683594 249.324219 172.449219 248.835938 172.242188 248.332031 C 172.035156 247.832031 171.851562 247.320312 171.695312 246.800781 C 171.535156 246.28125 171.402344 245.753906 171.296875 245.222656 C 171.191406 244.691406 171.113281 244.152344 171.058594 243.613281 C 171.007812 243.074219 170.980469 242.53125 170.980469 241.988281 C 170.980469 241.445312 171.007812 240.902344 171.058594 240.363281 C 171.113281 239.820312 171.191406 239.285156 171.296875 238.753906 C 171.402344 238.21875 171.535156 237.695312 171.695312 237.175781 C 171.851562 236.65625 172.035156 236.144531 172.242188 235.640625 C 172.449219 235.140625 172.683594 234.648438 172.9375 234.171875 C 173.195312 233.691406 173.472656 233.226562 173.773438 232.777344 C 174.078125 232.324219 174.398438 231.886719 174.746094 231.46875 C 175.089844 231.046875 175.453125 230.648438 175.835938 230.261719 C 176.222656 229.878906 176.625 229.515625 177.042969 229.171875 C 177.464844 228.824219 177.898438 228.503906 178.351562 228.199219 C 178.804688 227.898438 179.269531 227.621094 179.746094 227.363281 C 180.226562 227.109375 180.71875 226.875 181.21875 226.667969 C 181.722656 226.460938 182.230469 226.277344 182.75 226.121094 C 183.273438 225.960938 183.796875 225.832031 184.332031 225.726562 C 184.863281 225.617188 185.398438 225.539062 185.941406 225.484375 C 186.480469 225.433594 187.023438 225.40625 187.566406 225.40625 C 188.109375 225.40625 188.652344 225.433594 189.191406 225.484375 C 189.734375 225.539062 190.269531 225.617188 190.804688 225.726562 C 191.335938 225.832031 191.863281 225.960938 192.382812 226.121094 C 192.902344 226.277344 193.414062 226.460938 193.914062 226.667969 C 194.417969 226.875 194.90625 227.109375 195.386719 227.363281 C 195.863281 227.621094 196.332031 227.898438 196.78125 228.199219 C 197.234375 228.503906 197.667969 228.824219 198.089844 229.171875 C 198.507812 229.515625 198.910156 229.878906 199.296875 230.261719 C 199.679688 230.648438 200.042969 231.046875 200.390625 231.46875 C 200.734375 231.886719 201.058594 232.324219 201.359375 232.777344 C 201.660156 233.226562 201.941406 233.691406 202.195312 234.171875 C 202.453125 234.648438 202.683594 235.140625 202.890625 235.640625 C 203.097656 236.144531 203.28125 236.65625 203.441406 237.175781 C 203.597656 237.695312 203.730469 238.21875 203.835938 238.753906 C 203.941406 239.285156 204.019531 239.820312 204.074219 240.363281 C 204.128906 240.902344 204.152344 241.445312 204.152344 241.988281 C 204.152344 242.53125 204.128906 243.074219 204.074219 243.613281 C 204.019531 244.152344 203.941406 244.691406 203.835938 245.222656 C 203.730469 245.753906 203.597656 246.28125 203.441406 246.800781 C 203.28125 247.320312 203.097656 247.832031 202.890625 248.332031 C 202.683594 248.835938 202.453125 249.324219 202.195312 249.804688 C 201.941406 250.28125 201.660156 250.75 201.359375 251.199219 C 201.058594 251.652344 200.734375 252.085938 200.390625 252.507812 C 200.042969 252.925781 199.679688 253.328125 199.296875 253.710938 C 198.910156 254.097656 198.507812 254.460938 198.089844 254.804688 C 197.667969 255.148438 197.234375 255.472656 196.78125 255.773438 C 196.332031 256.074219 195.863281 256.355469 195.386719 256.609375 C 194.90625 256.867188 194.417969 257.097656 193.914062 257.304688 C 193.414062 257.515625 192.902344 257.695312 192.382812 257.855469 C 191.863281 258.011719 191.335938 258.144531 190.804688 258.25 C 190.269531 258.355469 189.734375 258.4375 189.191406 258.488281 C 188.652344 258.542969 188.109375 258.570312 187.566406 258.570312 Z M 187.566406 258.570312"/></g><g clip-path="url(#b)"><path fill="#9B744B" d="M 206.523438 286.992188 L 216.003906 286.992188 L 216.003906 329.632812 L 206.523438 329.632812 Z M 206.523438 286.992188"/></g><g clip-path="url(#c)"><path fill="#9B744B" d="M 159.132812 286.992188 L 168.609375 286.992188 L 168.609375 329.632812 L 159.132812 329.632812 Z M 159.132812 286.992188"/></g><g clip-path="url(#d)"><path fill="#9B744B" d="M 187.566406 45.382812 C 185.613281 45.378906 183.660156 45.421875 181.707031 45.5 C 179.753906 45.578125 177.804688 45.699219 175.855469 45.859375 C 173.910156 46.019531 171.964844 46.222656 170.027344 46.460938 C 168.085938 46.703125 166.152344 46.980469 164.226562 47.300781 C 162.296875 47.621094 160.378906 47.980469 158.464844 48.378906 C 156.550781 48.78125 154.648438 49.21875 152.753906 49.695312 C 150.859375 50.171875 148.976562 50.691406 147.101562 51.246094 C 145.226562 51.800781 143.367188 52.394531 141.519531 53.027344 C 139.667969 53.65625 137.832031 54.328125 136.011719 55.035156 C 134.191406 55.742188 132.382812 56.488281 130.59375 57.269531 C 128.804688 58.050781 127.03125 58.871094 125.273438 59.726562 C 123.515625 60.582031 121.777344 61.472656 120.058594 62.398438 C 118.335938 63.324219 116.636719 64.289062 114.957031 65.285156 C 113.277344 66.28125 111.617188 67.3125 109.980469 68.378906 C 108.339844 69.445312 106.726562 70.542969 105.132812 71.675781 C 103.539062 72.804688 101.972656 73.96875 100.425781 75.167969 C 98.882812 76.363281 97.363281 77.589844 95.871094 78.851562 C 94.375 80.109375 92.90625 81.398438 91.46875 82.71875 C 90.027344 84.039062 88.613281 85.386719 87.230469 86.765625 C 85.84375 88.144531 84.488281 89.546875 83.160156 90.984375 C 81.832031 92.417969 80.535156 93.875 79.269531 95.363281 C 78.003906 96.851562 76.765625 98.363281 75.5625 99.902344 C 74.359375 101.441406 73.183594 103.003906 72.046875 104.589844 C 70.90625 106.175781 69.796875 107.785156 68.726562 109.417969 C 67.652344 111.050781 66.613281 112.703125 65.605469 114.378906 C 64.601562 116.050781 63.628906 117.746094 62.695312 119.460938 C 61.757812 121.175781 60.859375 122.910156 59.996094 124.664062 C 59.132812 126.414062 58.304688 128.183594 57.511719 129.96875 C 56.722656 131.757812 55.96875 133.558594 55.25 135.375 C 54.535156 137.191406 53.855469 139.023438 53.214844 140.871094 C 52.574219 142.714844 51.96875 144.570312 51.40625 146.441406 C 50.839844 148.3125 50.316406 150.191406 49.828125 152.085938 C 49.339844 153.976562 48.894531 155.878906 48.484375 157.789062 C 48.074219 159.699219 47.707031 161.617188 47.375 163.542969 C 47.046875 165.464844 46.757812 167.398438 46.507812 169.335938 C 46.257812 171.273438 46.046875 173.214844 45.878906 175.160156 C 45.707031 177.105469 45.578125 179.054688 45.488281 181.007812 C 45.402344 182.957031 45.351562 184.910156 45.34375 186.863281 C 45.332031 188.816406 45.363281 190.769531 45.4375 192.722656 C 45.507812 194.671875 45.621094 196.625 45.773438 198.570312 C 45.925781 200.519531 46.117188 202.460938 46.347656 204.402344 C 46.582031 206.339844 46.855469 208.273438 47.164062 210.203125 C 47.476562 212.132812 47.828125 214.050781 48.222656 215.964844 C 48.613281 217.878906 49.042969 219.785156 49.511719 221.679688 C 49.984375 223.578125 50.492188 225.464844 51.039062 227.339844 C 51.585938 229.214844 52.171875 231.078125 52.796875 232.925781 C 53.421875 234.777344 54.085938 236.617188 54.785156 238.4375 C 55.484375 240.261719 56.222656 242.070312 56.996094 243.863281 C 57.773438 245.65625 58.582031 247.433594 59.433594 249.195312 C 60.28125 250.953125 61.164062 252.695312 62.082031 254.417969 C 63.003906 256.140625 63.960938 257.84375 64.949219 259.53125 C 65.941406 261.214844 66.964844 262.875 68.023438 264.519531 C 69.082031 266.160156 70.175781 267.777344 71.300781 269.375 C 72.425781 270.972656 73.582031 272.546875 74.773438 274.09375 C 75.964844 275.644531 77.1875 277.167969 78.441406 278.667969 C 79.691406 280.164062 80.976562 281.636719 82.292969 283.082031 C 83.605469 284.527344 84.949219 285.945312 86.320312 287.335938 C 87.695312 288.726562 89.09375 290.089844 90.523438 291.421875 C 91.953125 292.753906 93.40625 294.054688 94.890625 295.328125 C 96.371094 296.601562 97.878906 297.84375 99.414062 299.054688 C 100.949219 300.265625 102.507812 301.441406 104.089844 302.589844 C 105.671875 303.734375 107.277344 304.847656 108.902344 305.929688 C 110.53125 307.007812 112.183594 308.054688 113.851562 309.066406 C 115.523438 310.078125 117.214844 311.054688 118.929688 312 L 123.507812 303.703125 C 121.375 302.53125 119.28125 301.296875 117.21875 300.011719 C 115.15625 298.722656 113.132812 297.378906 111.144531 295.976562 C 109.15625 294.578125 107.210938 293.125 105.300781 291.617188 C 103.394531 290.113281 101.53125 288.554688 99.707031 286.945312 C 97.886719 285.335938 96.109375 283.675781 94.378906 281.96875 C 92.648438 280.261719 90.964844 278.511719 89.328125 276.710938 C 87.695312 274.910156 86.109375 273.070312 84.578125 271.183594 C 83.042969 269.296875 81.5625 267.371094 80.136719 265.402344 C 78.710938 263.433594 77.335938 261.429688 76.019531 259.386719 C 74.703125 257.34375 73.441406 255.265625 72.242188 253.152344 C 71.039062 251.039062 69.894531 248.898438 68.808594 246.722656 C 67.722656 244.546875 66.699219 242.34375 65.734375 240.113281 C 64.773438 237.878906 63.871094 235.625 63.03125 233.34375 C 62.191406 231.0625 61.414062 228.757812 60.703125 226.4375 C 59.988281 224.113281 59.339844 221.769531 58.757812 219.410156 C 58.171875 217.050781 57.652344 214.679688 57.199219 212.289062 C 56.746094 209.902344 56.355469 207.503906 56.035156 205.09375 C 55.714844 202.6875 55.457031 200.269531 55.269531 197.847656 C 55.078125 195.425781 54.957031 192.996094 54.902344 190.566406 C 54.847656 188.136719 54.859375 185.707031 54.933594 183.277344 C 55.011719 180.851562 55.15625 178.425781 55.371094 176.003906 C 55.582031 173.582031 55.859375 171.167969 56.203125 168.761719 C 56.546875 166.355469 56.957031 163.960938 57.433594 161.578125 C 57.90625 159.195312 58.449219 156.824219 59.054688 154.472656 C 59.660156 152.117188 60.332031 149.78125 61.066406 147.464844 C 61.800781 145.148438 62.597656 142.855469 63.457031 140.582031 C 64.320312 138.308594 65.242188 136.058594 66.226562 133.835938 C 67.210938 131.613281 68.253906 129.421875 69.359375 127.253906 C 70.464844 125.089844 71.628906 122.957031 72.851562 120.855469 C 74.070312 118.753906 75.351562 116.6875 76.6875 114.660156 C 78.023438 112.628906 79.414062 110.636719 80.859375 108.679688 C 82.304688 106.726562 83.800781 104.8125 85.351562 102.941406 C 86.902344 101.070312 88.503906 99.242188 90.15625 97.457031 C 91.804688 95.671875 93.503906 93.933594 95.25 92.242188 C 96.996094 90.554688 98.789062 88.910156 100.625 87.320312 C 102.464844 85.726562 104.34375 84.1875 106.265625 82.695312 C 108.1875 81.207031 110.148438 79.773438 112.148438 78.390625 C 114.148438 77.007812 116.183594 75.683594 118.257812 74.414062 C 120.332031 73.144531 122.4375 71.933594 124.578125 70.78125 C 126.71875 69.625 128.886719 68.53125 131.089844 67.496094 C 133.289062 66.464844 135.515625 65.488281 137.769531 64.578125 C 140.023438 63.664062 142.300781 62.816406 144.601562 62.03125 C 146.902344 61.242188 149.222656 60.519531 151.5625 59.859375 C 153.902344 59.199219 156.257812 58.605469 158.632812 58.074219 C 161.003906 57.546875 163.390625 57.082031 165.789062 56.683594 C 168.1875 56.285156 170.59375 55.949219 173.011719 55.683594 C 175.429688 55.417969 177.851562 55.21875 180.277344 55.082031 C 182.707031 54.949219 185.136719 54.882812 187.566406 54.882812 C 190 54.882812 192.429688 54.949219 194.855469 55.082031 C 197.285156 55.21875 199.707031 55.417969 202.121094 55.683594 C 204.539062 55.949219 206.945312 56.285156 209.34375 56.683594 C 211.742188 57.082031 214.128906 57.546875 216.503906 58.074219 C 218.875 58.605469 221.230469 59.199219 223.570312 59.859375 C 225.910156 60.519531 228.230469 61.242188 230.53125 62.03125 C 232.832031 62.816406 235.109375 63.664062 237.363281 64.578125 C 239.617188 65.488281 241.84375 66.464844 244.042969 67.496094 C 246.246094 68.53125 248.414062 69.625 250.554688 70.78125 C 252.695312 71.933594 254.800781 73.144531 256.875 74.414062 C 258.949219 75.683594 260.984375 77.007812 262.984375 78.390625 C 264.988281 79.773438 266.949219 81.207031 268.871094 82.695312 C 270.792969 84.1875 272.671875 85.726562 274.507812 87.320312 C 276.34375 88.910156 278.136719 90.554688 279.882812 92.242188 C 281.628906 93.933594 283.328125 95.671875 284.980469 97.457031 C 286.628906 99.242188 288.230469 101.070312 289.78125 102.941406 C 291.332031 104.8125 292.828125 106.726562 294.277344 108.679688 C 295.722656 110.636719 297.109375 112.628906 298.445312 114.660156 C 299.78125 116.6875 301.0625 118.753906 302.285156 120.855469 C 303.507812 122.957031 304.667969 125.089844 305.773438 127.257812 C 306.878906 129.421875 307.925781 131.613281 308.90625 133.835938 C 309.890625 136.058594 310.816406 138.308594 311.675781 140.582031 C 312.535156 142.855469 313.332031 145.148438 314.066406 147.464844 C 314.800781 149.78125 315.472656 152.117188 316.078125 154.472656 C 316.683594 156.824219 317.226562 159.195312 317.703125 161.578125 C 318.175781 163.960938 318.585938 166.355469 318.929688 168.761719 C 319.273438 171.167969 319.554688 173.582031 319.765625 176.003906 C 319.976562 178.425781 320.121094 180.851562 320.199219 183.277344 C 320.277344 185.707031 320.289062 188.136719 320.230469 190.566406 C 320.175781 192.996094 320.054688 195.425781 319.863281 197.847656 C 319.675781 200.269531 319.421875 202.6875 319.097656 205.097656 C 318.777344 207.503906 318.386719 209.902344 317.933594 212.292969 C 317.480469 214.679688 316.960938 217.050781 316.378906 219.410156 C 315.792969 221.769531 315.144531 224.113281 314.429688 226.4375 C 313.71875 228.757812 312.941406 231.0625 312.101562 233.34375 C 311.261719 235.625 310.359375 237.878906 309.398438 240.113281 C 308.433594 242.34375 307.410156 244.546875 306.324219 246.722656 C 305.238281 248.898438 304.097656 251.039062 302.894531 253.152344 C 301.691406 255.265625 300.429688 257.34375 299.113281 259.386719 C 297.796875 261.429688 296.425781 263.433594 294.996094 265.402344 C 293.570312 267.371094 292.089844 269.296875 290.554688 271.183594 C 289.023438 273.070312 287.4375 274.910156 285.804688 276.710938 C 284.167969 278.511719 282.488281 280.261719 280.757812 281.96875 C 279.023438 283.675781 277.25 285.335938 275.425781 286.945312 C 273.605469 288.554688 271.738281 290.113281 269.832031 291.617188 C 267.921875 293.125 265.976562 294.578125 263.988281 295.976562 C 262 297.378906 259.976562 298.722656 257.914062 300.011719 C 255.851562 301.296875 253.757812 302.53125 251.628906 303.703125 L 256.210938 312 C 257.921875 311.054688 259.613281 310.078125 261.285156 309.066406 C 262.957031 308.054688 264.605469 307.007812 266.234375 305.929688 C 267.863281 304.847656 269.46875 303.734375 271.050781 302.589844 C 272.632812 301.441406 274.191406 300.265625 275.722656 299.054688 C 277.257812 297.84375 278.765625 296.601562 280.25 295.328125 C 281.730469 294.054688 283.1875 292.753906 284.617188 291.421875 C 286.042969 290.089844 287.445312 288.726562 288.816406 287.335938 C 290.191406 285.945312 291.535156 284.527344 292.847656 283.082031 C 294.160156 281.636719 295.445312 280.164062 296.699219 278.664062 C 297.953125 277.167969 299.175781 275.644531 300.363281 274.09375 C 301.554688 272.546875 302.714844 270.972656 303.839844 269.375 C 304.964844 267.777344 306.058594 266.160156 307.117188 264.515625 C 308.175781 262.875 309.199219 261.210938 310.191406 259.527344 C 311.179688 257.84375 312.136719 256.140625 313.054688 254.417969 C 313.976562 252.695312 314.859375 250.953125 315.707031 249.191406 C 316.554688 247.433594 317.367188 245.65625 318.140625 243.863281 C 318.917969 242.070312 319.652344 240.261719 320.355469 238.4375 C 321.054688 236.613281 321.71875 234.777344 322.339844 232.925781 C 322.964844 231.074219 323.550781 229.210938 324.101562 227.335938 C 324.648438 225.460938 325.15625 223.574219 325.625 221.679688 C 326.097656 219.785156 326.527344 217.878906 326.917969 215.964844 C 327.308594 214.050781 327.660156 212.128906 327.972656 210.203125 C 328.285156 208.273438 328.558594 206.339844 328.789062 204.398438 C 329.023438 202.460938 329.214844 200.515625 329.367188 198.570312 C 329.519531 196.621094 329.628906 194.671875 329.703125 192.71875 C 329.773438 190.769531 329.804688 188.816406 329.796875 186.863281 C 329.785156 184.910156 329.738281 182.957031 329.648438 181.003906 C 329.558594 179.054688 329.429688 177.105469 329.257812 175.160156 C 329.089844 173.210938 328.878906 171.269531 328.628906 169.332031 C 328.378906 167.394531 328.089844 165.464844 327.761719 163.539062 C 327.429688 161.613281 327.0625 159.695312 326.652344 157.785156 C 326.246094 155.875 325.796875 153.972656 325.308594 152.082031 C 324.824219 150.191406 324.296875 148.308594 323.734375 146.441406 C 323.167969 144.570312 322.566406 142.710938 321.925781 140.867188 C 321.28125 139.023438 320.605469 137.191406 319.886719 135.375 C 319.171875 133.554688 318.414062 131.753906 317.625 129.96875 C 316.832031 128.183594 316.007812 126.414062 315.140625 124.660156 C 314.277344 122.910156 313.378906 121.175781 312.441406 119.460938 C 311.507812 117.746094 310.535156 116.050781 309.53125 114.375 C 308.523438 112.699219 307.484375 111.046875 306.410156 109.414062 C 305.339844 107.78125 304.230469 106.171875 303.089844 104.585938 C 301.953125 103 300.777344 101.4375 299.574219 99.898438 C 298.371094 98.363281 297.132812 96.847656 295.867188 95.363281 C 294.601562 93.875 293.304688 92.414062 291.976562 90.980469 C 290.648438 89.546875 289.292969 88.140625 287.90625 86.761719 C 286.523438 85.386719 285.109375 84.035156 283.667969 82.714844 C 282.226562 81.398438 280.761719 80.105469 279.265625 78.847656 C 277.773438 77.589844 276.253906 76.359375 274.707031 75.164062 C 273.164062 73.96875 271.59375 72.804688 270.003906 71.671875 C 268.410156 70.539062 266.792969 69.441406 265.15625 68.375 C 263.519531 67.3125 261.859375 66.28125 260.179688 65.28125 C 258.5 64.285156 256.796875 63.324219 255.078125 62.398438 C 253.359375 61.46875 251.617188 60.578125 249.863281 59.722656 C 248.105469 58.871094 246.332031 58.050781 244.539062 57.269531 C 242.75 56.488281 240.945312 55.742188 239.121094 55.035156 C 237.300781 54.328125 235.464844 53.65625 233.617188 53.023438 C 231.769531 52.394531 229.90625 51.800781 228.03125 51.242188 C 226.160156 50.6875 224.273438 50.171875 222.378906 49.695312 C 220.484375 49.21875 218.582031 48.777344 216.667969 48.378906 C 214.753906 47.980469 212.835938 47.621094 210.90625 47.300781 C 208.980469 46.980469 207.046875 46.699219 205.105469 46.460938 C 203.167969 46.21875 201.222656 46.019531 199.277344 45.859375 C 197.328125 45.699219 195.378906 45.578125 193.425781 45.5 C 191.472656 45.421875 189.519531 45.378906 187.566406 45.382812 Z M 187.566406 45.382812"/></g><path fill="#9B744B" d="M 127.34375 169.945312 L 113.128906 184.15625 C 112.90625 184.375 112.710938 184.617188 112.539062 184.875 C 112.363281 185.132812 112.21875 185.40625 112.101562 185.695312 C 111.980469 185.980469 111.890625 186.277344 111.832031 186.582031 C 111.769531 186.886719 111.738281 187.195312 111.738281 187.507812 C 111.738281 187.816406 111.769531 188.125 111.832031 188.429688 C 111.890625 188.734375 111.980469 189.03125 112.101562 189.320312 C 112.21875 189.605469 112.363281 189.878906 112.539062 190.136719 C 112.710938 190.398438 112.90625 190.636719 113.128906 190.855469 L 127.34375 205.066406 L 134.046875 198.371094 L 127.917969 192.242188 L 187.566406 192.242188 C 187.878906 192.242188 188.1875 192.214844 188.492188 192.152344 C 188.796875 192.09375 189.09375 192.003906 189.378906 191.882812 C 189.667969 191.765625 189.941406 191.617188 190.199219 191.445312 C 190.457031 191.273438 190.699219 191.078125 190.917969 190.855469 C 191.136719 190.636719 191.335938 190.398438 191.507812 190.136719 C 191.679688 189.878906 191.828125 189.605469 191.945312 189.320312 C 192.0625 189.03125 192.15625 188.734375 192.214844 188.429688 C 192.277344 188.125 192.304688 187.816406 192.304688 187.507812 L 192.304688 89.980469 L 198.433594 96.105469 L 205.136719 89.40625 L 190.917969 75.195312 C 190.699219 74.972656 190.457031 74.777344 190.199219 74.605469 C 189.941406 74.433594 189.667969 74.285156 189.378906 74.167969 C 189.09375 74.046875 188.796875 73.960938 188.492188 73.898438 C 188.1875 73.835938 187.878906 73.808594 187.566406 73.808594 C 187.253906 73.808594 186.949219 73.835938 186.640625 73.898438 C 186.335938 73.960938 186.039062 74.046875 185.753906 74.167969 C 185.464844 74.285156 185.191406 74.433594 184.933594 74.605469 C 184.675781 74.777344 184.4375 74.972656 184.214844 75.195312 L 170 89.40625 L 176.699219 96.105469 L 182.828125 89.980469 L 182.828125 182.769531 L 127.917969 182.769531 L 134.046875 176.644531 Z M 127.34375 169.945312"/><path fill="#9B744B" d="M 268.132812 234.882812 C 268.773438 234.882812 269.390625 234.761719 269.980469 234.515625 C 270.570312 234.269531 271.089844 233.917969 271.539062 233.460938 L 300.152344 203.980469 C 300.617188 203.492188 301.0625 202.984375 301.476562 202.453125 C 301.894531 201.925781 302.285156 201.378906 302.652344 200.8125 C 303.015625 200.246094 303.355469 199.664062 303.664062 199.066406 C 303.972656 198.464844 304.253906 197.855469 304.503906 197.230469 C 304.757812 196.605469 304.976562 195.96875 305.167969 195.320312 C 305.359375 194.675781 305.515625 194.019531 305.644531 193.359375 C 305.773438 192.699219 305.867188 192.03125 305.933594 191.359375 C 305.996094 190.691406 306.027344 190.019531 306.027344 189.34375 C 306.027344 188.671875 305.996094 188 305.933594 187.328125 C 305.867188 186.65625 305.773438 185.992188 305.644531 185.328125 C 305.515625 184.667969 305.359375 184.015625 305.167969 183.367188 C 304.976562 182.722656 304.757812 182.085938 304.503906 181.460938 C 304.253906 180.835938 303.972656 180.222656 303.664062 179.625 C 303.355469 179.027344 303.015625 178.441406 302.652344 177.878906 C 302.285156 177.3125 301.894531 176.761719 301.476562 176.234375 C 301.0625 175.703125 300.617188 175.195312 300.152344 174.710938 C 299.6875 174.226562 299.199219 173.765625 298.691406 173.332031 C 298.179688 172.898438 297.648438 172.492188 297.09375 172.109375 C 296.542969 171.726562 295.972656 171.375 295.386719 171.050781 C 294.796875 170.730469 294.195312 170.433594 293.578125 170.171875 C 292.960938 169.910156 292.332031 169.679688 291.691406 169.480469 C 291.050781 169.277344 290.402344 169.113281 289.746094 168.976562 C 289.085938 168.84375 288.425781 168.742188 287.757812 168.675781 C 287.089844 168.609375 286.421875 168.574219 285.75 168.574219 C 285.078125 168.574219 284.410156 168.609375 283.742188 168.675781 C 283.074219 168.742188 282.414062 168.84375 281.753906 168.976562 C 281.097656 169.113281 280.449219 169.277344 279.808594 169.480469 C 279.167969 169.679688 278.539062 169.910156 277.921875 170.171875 C 277.304688 170.433594 276.703125 170.730469 276.113281 171.050781 C 275.527344 171.375 274.957031 171.726562 274.40625 172.109375 C 273.851562 172.492188 273.320312 172.898438 272.8125 173.332031 C 272.300781 173.765625 271.8125 174.226562 271.347656 174.710938 L 268.132812 178.027344 L 264.921875 174.710938 C 264.457031 174.226562 263.96875 173.765625 263.457031 173.332031 C 262.945312 172.898438 262.414062 172.492188 261.863281 172.109375 C 261.3125 171.726562 260.742188 171.375 260.152344 171.050781 C 259.566406 170.730469 258.964844 170.433594 258.347656 170.171875 C 257.730469 169.910156 257.101562 169.679688 256.460938 169.480469 C 255.820312 169.277344 255.171875 169.113281 254.511719 168.976562 C 253.855469 168.84375 253.195312 168.742188 252.527344 168.675781 C 251.859375 168.609375 251.1875 168.574219 250.519531 168.574219 C 249.847656 168.574219 249.179688 168.609375 248.511719 168.675781 C 247.84375 168.742188 247.179688 168.84375 246.523438 168.976562 C 245.867188 169.113281 245.21875 169.277344 244.578125 169.480469 C 243.9375 169.679688 243.308594 169.910156 242.691406 170.171875 C 242.074219 170.433594 241.472656 170.730469 240.882812 171.050781 C 240.296875 171.375 239.726562 171.726562 239.171875 172.109375 C 238.621094 172.492188 238.089844 172.898438 237.578125 173.332031 C 237.066406 173.765625 236.582031 174.226562 236.117188 174.710938 C 235.648438 175.195312 235.207031 175.703125 234.789062 176.234375 C 234.375 176.761719 233.980469 177.3125 233.617188 177.878906 C 233.25 178.441406 232.914062 179.027344 232.605469 179.625 C 232.296875 180.222656 232.015625 180.835938 231.765625 181.460938 C 231.511719 182.085938 231.292969 182.722656 231.101562 183.367188 C 230.910156 184.015625 230.753906 184.667969 230.625 185.328125 C 230.496094 185.992188 230.402344 186.65625 230.335938 187.328125 C 230.273438 188 230.238281 188.671875 230.238281 189.34375 C 230.238281 190.019531 230.273438 190.691406 230.335938 191.359375 C 230.402344 192.03125 230.496094 192.699219 230.625 193.359375 C 230.753906 194.019531 230.910156 194.675781 231.101562 195.320312 C 231.292969 195.96875 231.511719 196.605469 231.765625 197.230469 C 232.015625 197.855469 232.296875 198.464844 232.605469 199.066406 C 232.914062 199.664062 233.25 200.246094 233.617188 200.8125 C 233.980469 201.378906 234.375 201.925781 234.789062 202.453125 C 235.207031 202.984375 235.648438 203.492188 236.117188 203.980469 L 264.730469 233.460938 C 265.179688 233.917969 265.699219 234.269531 266.289062 234.515625 C 266.878906 234.761719 267.496094 234.882812 268.132812 234.882812 Z M 242.917969 181.289062 C 243.40625 180.777344 243.945312 180.316406 244.527344 179.910156 C 245.109375 179.503906 245.730469 179.160156 246.382812 178.882812 C 247.035156 178.601562 247.710938 178.390625 248.40625 178.246094 C 249.105469 178.101562 249.808594 178.03125 250.519531 178.03125 C 251.230469 178.03125 251.933594 178.101562 252.628906 178.246094 C 253.324219 178.390625 254 178.601562 254.652344 178.882812 C 255.308594 179.160156 255.925781 179.503906 256.511719 179.910156 C 257.09375 180.316406 257.628906 180.777344 258.121094 181.289062 L 264.730469 188.097656 C 264.957031 188.316406 265.203125 188.515625 265.464844 188.6875 C 265.730469 188.859375 266.007812 189.003906 266.296875 189.121094 C 266.589844 189.242188 266.890625 189.332031 267.199219 189.390625 C 267.507812 189.453125 267.820312 189.480469 268.132812 189.480469 C 268.449219 189.480469 268.761719 189.453125 269.070312 189.390625 C 269.378906 189.332031 269.679688 189.242188 269.972656 189.121094 C 270.261719 189.003906 270.539062 188.859375 270.804688 188.6875 C 271.066406 188.515625 271.3125 188.316406 271.539062 188.097656 L 278.148438 181.289062 C 278.648438 180.792969 279.191406 180.34375 279.777344 179.953125 C 280.363281 179.558594 280.984375 179.226562 281.636719 178.957031 C 282.289062 178.6875 282.960938 178.484375 283.652344 178.34375 C 284.34375 178.207031 285.042969 178.136719 285.75 178.136719 C 286.457031 178.136719 287.15625 178.207031 287.847656 178.34375 C 288.539062 178.484375 289.214844 178.6875 289.867188 178.957031 C 290.515625 179.226562 291.136719 179.558594 291.722656 179.953125 C 292.308594 180.34375 292.851562 180.792969 293.351562 181.289062 C 293.863281 181.828125 294.320312 182.40625 294.722656 183.03125 C 295.125 183.652344 295.464844 184.308594 295.742188 184.996094 C 296.015625 185.683594 296.226562 186.394531 296.367188 187.121094 C 296.507812 187.847656 296.578125 188.585938 296.578125 189.324219 C 296.578125 190.066406 296.507812 190.800781 296.367188 191.53125 C 296.226562 192.257812 296.015625 192.964844 295.742188 193.652344 C 295.464844 194.34375 295.125 194.996094 294.722656 195.621094 C 294.320312 196.246094 293.863281 196.824219 293.351562 197.359375 L 268.132812 223.339844 L 242.917969 197.359375 C 242.402344 196.824219 241.945312 196.246094 241.546875 195.621094 C 241.144531 195 240.804688 194.34375 240.527344 193.652344 C 240.253906 192.964844 240.042969 192.257812 239.902344 191.53125 C 239.761719 190.800781 239.691406 190.066406 239.691406 189.324219 C 239.691406 188.585938 239.761719 187.847656 239.902344 187.121094 C 240.042969 186.394531 240.253906 185.683594 240.527344 184.996094 C 240.804688 184.308594 241.144531 183.652344 241.546875 183.03125 C 241.945312 182.40625 242.402344 181.828125 242.917969 181.289062 Z M 242.917969 181.289062"/><path fill="#9B744B" d="M 230.21875 230.144531 L 239.699219 230.144531 L 239.699219 239.617188 L 230.21875 239.617188 Z M 230.21875 230.144531"/></svg>